<svg width="304" height="83" viewBox="0 0 304 83" fill="none" xmlns="http://www.w3.org/2000/svg">
<path d="M125.467 74.2154V46.0897H103.551V74.2154H110.743V52.2525H118.343V74.2154H125.467ZM153.016 46.0897H145.688L141.074 57.8907L135.985 46.0897H128.453L137.681 65.3647C137.41 66.4792 136.663 68.1182 134.424 68.1182H131.913V74.281H135.917C139.649 74.281 141.752 71.8552 142.838 69.3639L153.016 46.0897ZM190.267 74.2154V46.0897H183.143V68.0527H176.697V46.0897H169.504V68.0527H163.126V46.0897H156.001V74.2154H190.267ZM203.295 74.2154V59.4642L211.913 74.2154H220.326L210.827 59.1364L219.444 46.0242H211.234L203.363 59.3331V46.0897H196.171V74.2154H203.295ZM245.636 74.2154V46.0897H239.393L230.029 61.431V46.0897H222.837V74.2154H229.079L238.443 58.8741V74.2154H245.636ZM273.456 74.2154V46.0897H266.263V56.9073H258.664V46.0897H251.471V74.2154H258.664V63.07H266.263V74.2154H273.456ZM303.107 74.2154L292.522 46.0897H286.958L276.373 74.2154H283.837L285.262 70.0195H294.219L295.576 74.2154H303.107ZM292.387 64.2501H287.298L289.944 56.7106L292.387 64.2501Z" fill="black"/>
<path d="M116.775 23.799V19.2097H100.965V23.7334H106.257V39.8614H111.55V23.799H116.775ZM134.417 39.927V35.4033H125.121V31.7974H133.059V27.2737H125.121V23.799H134.417V19.2097H119.828V39.927H134.417ZM155.587 39.927L147.784 19.2097H143.712L135.977 39.927H141.473L142.491 36.8456H149.073L150.091 39.927H155.587ZM147.716 32.5842H143.984L145.884 27.077L147.716 32.5842ZM170.515 23.799V19.2097H154.705V23.7334H159.997V39.8614H165.29V23.799H170.515ZM189.31 25.8969C189.31 22.0288 186.256 19.2753 181.982 19.2753H173.5V39.9926H178.793V32.6497H181.982C186.324 32.5186 189.31 29.765 189.31 25.8969ZM184.085 25.8969C184.085 27.077 183.135 27.9949 181.778 27.9949H178.793V23.799H181.778C183.135 23.799 184.085 24.7168 184.085 25.8969ZM215.773 39.927V19.2097H211.159L204.305 30.4862V19.2097H199.081V39.927H203.695L210.548 28.6505V39.927H215.773ZM240.064 39.927V19.2097H234.907L230.09 28.3227L225.272 19.2097H220.115V39.927H225.408V30.0273L228.461 35.141H231.854L234.907 30.0273V39.927H240.064ZM258.995 39.927V35.4033H249.699V31.7974H257.638V27.2737H249.699V23.799H258.995V19.2097H244.475V39.927H258.995ZM278.808 39.927V19.2097H273.516V27.1426H267.952V19.2097H262.727V39.927H267.952V31.7319H273.516V39.927H278.808ZM299.911 39.927V19.2097H295.297L288.444 30.4862V19.2097H283.151V39.927H287.765L294.618 28.6505V39.927H299.911Z" fill="black"/>
<path fill-rule="evenodd" clip-rule="evenodd" d="M21.5095 33.7639C20.4239 33.6984 19.3382 33.6328 18.3204 33.5672V33.3706C17.9811 33.305 17.8454 33.2394 17.574 33.2394C17.574 33.4361 17.574 33.6328 17.6419 33.8295C17.9811 34.0917 18.4561 34.5506 18.7275 35.5341H18.8632V38.1565C18.2526 38.681 17.7097 38.4187 17.8454 39.5333C18.049 39.271 18.1847 39.1399 18.4561 38.9432C18.9311 38.7466 19.5418 38.5499 20.1525 38.3532V38.2221C20.6274 38.0909 21.0345 38.0254 21.5774 37.9598V35.9274H21.5095C21.2381 35.5996 20.9667 35.2718 20.6953 35.0096C20.6953 34.8129 20.6953 34.6818 20.7631 34.4851H21.5774V33.7639H21.5095ZM21.5095 28.9124H18.049V29.1091C17.3026 29.1746 16.6919 29.2402 16.0134 29.3713V29.568C14.792 29.9614 14.2492 29.8303 14.2492 31.0759C14.3171 31.0759 14.3849 31.1415 14.4528 31.207C15.1313 31.1415 15.8098 31.0759 16.4884 31.0759V30.8792C16.8955 30.8137 18.049 30.4203 18.049 30.0925C18.4561 29.8958 18.9311 29.7647 19.4739 29.568V29.3713H21.4417V28.9124H21.5095ZM21.5095 52.2521V51.2687C21.2381 51.2687 21.0345 51.2031 20.831 51.2031V50.9409H20.356V51.2031C20.2882 51.2031 20.2203 51.2031 20.1525 51.2031V51.3998C20.356 51.4654 20.6274 51.5309 20.831 51.6621C21.1024 51.7932 21.306 52.0554 21.5095 52.2521ZM21.5095 58.546V55.7924C21.1702 55.7268 20.8988 55.7269 20.6274 55.7269C20.4917 56.1858 20.7631 56.8414 20.9667 57.6937H21.1702C21.306 58.0215 21.306 58.2182 21.5095 58.546ZM21.5095 68.7735H20.2203V68.5768H19.5418V68.3801C18.4561 68.3146 17.3705 68.1834 16.3527 68.0523V67.8557H13.0278C12.96 67.9212 12.8921 67.9868 12.8921 68.0523C12.8243 67.9868 12.7564 67.9212 12.7564 67.8557V68.0523H12.6207C12.5529 67.9868 12.485 67.9212 12.485 67.8557V68.0523H8.27811V67.8557C6.31037 67.3967 6.17465 66.151 5.83539 65.2988C5.76753 65.2332 5.69968 65.1676 5.63183 65.1676C5.69968 65.1021 5.76753 65.0365 5.83539 65.0365H5.63183V64.8398C5.69968 64.8398 5.76753 64.7743 5.83539 64.7743C5.76753 64.7087 5.69968 64.6431 5.63183 64.6431H5.83539C5.83539 63.6597 5.90324 63.0697 6.17465 62.6108C6.03895 61.4962 5.90324 60.4472 5.83539 59.3983H5.63183V58.9393H5.49612C5.22471 58.546 4.9533 58.1526 4.68188 57.8904C4.61403 57.1692 4.54618 56.448 4.54618 55.7924C4.47832 55.5302 4.34262 55.399 4.27476 55.2024C2.57843 54.8746 4.54618 52.3832 4.74973 51.9899H4.9533V50.482C4.61403 50.1542 4.27476 49.8264 3.86764 49.5641C3.12126 49.4986 2.44272 49.4986 1.69633 49.4986V49.3674C0.40712 49.3674 0 48.843 0 48.1218V47.9251C0 47.335 0.203561 46.8106 0.271414 46.4172C0.407121 46.2205 0.610683 46.0894 0.814243 45.9583C0.814243 45.4338 1.62848 44.9093 1.96775 44.7126C2.44272 43.8603 2.78199 43.0736 3.52838 42.8113C4.0712 41.8935 4.74973 41.5657 5.42827 40.7789C6.31036 40.3856 6.71748 39.0088 7.80314 38.3532C7.80314 38.2876 7.80313 38.2221 7.87099 38.1565C7.93884 38.0909 8.0067 38.0909 8.07455 38.0909C8.21026 37.5664 8.21026 37.1731 8.95665 37.042C9.0245 36.6486 9.22806 36.3208 9.36376 35.993H9.56732C9.97444 35.0751 10.5173 34.0917 10.9922 33.2394C11.0601 33.2394 11.128 33.2394 11.1958 33.2394C11.3315 32.3216 11.5351 31.2726 11.6708 30.2892H11.8743V30.0925C11.8065 30.0269 11.7386 29.9614 11.6708 29.9614H11.8743C12.01 29.2402 12.1458 28.5846 12.2815 27.8634H12.485C12.485 27.6667 12.5529 27.4701 12.6207 27.3389H12.7564C12.96 26.9456 13.0957 26.4866 13.435 26.1588H13.5707C13.8421 25.6344 13.9099 25.4377 14.3171 25.241C14.9277 24.3231 16.2848 23.0775 16.4205 21.9629H16.5562C16.7598 21.1762 17.0312 20.5206 17.2348 19.9305H17.4383C17.6419 18.9471 18.049 18.9471 18.3883 18.4226C18.4561 18.0948 18.5918 17.767 18.7275 17.5703H18.8632C18.9311 17.3737 18.9989 17.177 19.0668 17.0459C19.1346 16.9803 19.2025 16.9803 19.3382 16.9803V15.8658C18.3883 15.1446 17.6419 13.8989 17.4383 13.5711H17.2348C17.1669 13.3089 17.099 12.9811 17.099 12.7188H16.9633C16.9633 11.9321 16.6919 10.6209 16.5562 10.2275H16.3527V8.78517H16.5562C16.6919 7.99844 16.8276 7.14614 16.9633 6.35941C17.099 6.29385 17.2348 6.29384 17.4383 6.29384V7.93287H17.2348C17.1669 8.32623 17.099 8.65404 17.099 8.98185H16.9633V9.76859C17.0312 9.76859 17.099 9.83414 17.099 9.8997C17.099 9.8997 17.0312 9.96527 16.9633 10.0308H17.099C17.099 10.1619 17.1669 10.4242 17.2348 10.6864H17.4383C17.5062 11.4732 17.6419 12.1943 17.7776 12.9811C18.3883 13.3089 18.2526 13.9645 19.1346 14.6201C19.2025 14.6201 19.3382 14.6201 19.4739 14.6857V14.8823H20.1525V14.6857C20.4917 14.6857 20.831 13.44 20.8988 13.1777C20.7631 12.7188 20.6274 12.3255 20.4917 11.9321C20.0167 11.9321 20.2203 11.0142 19.6775 11.0142C19.5418 10.6864 19.4739 10.3586 19.4061 10.162H19.2025V8.65404H19.4061C19.7453 7.67063 19.881 7.86732 20.4917 7.47395C20.4917 6.8839 21.0345 6.8839 21.5774 6.81834V7.60506C21.0345 7.80174 20.6953 8.39181 20.2203 8.45737C19.9489 8.98186 20.0846 9.63747 20.2882 10.4242C20.6274 10.8176 20.6274 11.2765 21.2381 11.5387C21.306 11.6698 21.3738 11.8665 21.5095 11.9321H21.5774V14.8823C21.306 15.079 21.0345 15.2757 21.0345 15.2757V15.8002C21.1024 15.8002 21.1702 15.8002 21.2381 15.8002C21.306 15.9313 21.3738 16.128 21.4417 16.2591H21.5774V16.5869C20.1524 16.1936 20.0846 17.7015 19.2025 18.1604C19.0668 18.3571 18.9989 18.5538 18.9311 18.7504H18.7954C18.524 19.1438 18.3204 19.6027 18.1168 20.0617H17.9811C17.7776 20.455 17.6419 20.9795 17.4383 21.504H17.2348C17.1669 21.8318 17.099 22.2252 17.099 22.4874H16.9633C16.8955 22.7497 16.217 23.602 16.7598 24.0609H19.8132V24.5198C18.8632 24.5854 17.7776 24.6509 16.8276 24.7821V24.9132C16.4884 24.9132 16.217 24.9787 16.0134 25.0443V25.241C14.792 25.5688 14.3849 25.241 14.3849 26.5522C14.6563 26.9456 15.267 26.9456 15.6741 26.7489V26.4211C16.3527 26.3555 17.0312 26.2244 17.7776 26.0933V26.4211H17.5062C17.4383 26.4866 17.3705 26.5522 17.3705 26.6178V26.4211H17.2348V26.6178C16.6919 26.6833 16.217 26.7489 15.6063 26.88V27.0767C15.4027 27.0767 15.3349 27.0767 15.1992 27.1423C15.1992 27.4045 14.2492 27.7979 13.9099 27.8634C13.5707 28.519 12.96 29.3713 12.8243 30.3547H12.6886C12.6207 30.6825 12.5529 31.0759 12.5529 31.4037H12.3493C12.2136 32.0593 12.0779 32.8461 11.9422 33.5672H11.8065C11.6708 34.0917 11.4672 34.4851 11.3315 34.944C11.1958 34.944 11.128 34.944 11.0601 35.0096C10.7208 36.583 8.48167 37.9598 7.93885 39.2055C7.46387 39.5333 7.19246 39.4677 7.05675 40.1233C6.85319 40.2545 6.64963 40.3856 6.51392 40.5167C6.51392 40.8445 5.76754 41.2379 5.76754 41.8279H5.63183C4.9533 43.008 3.0534 43.7948 2.84984 45.106C2.30702 45.106 2.30701 45.696 2.10345 46.0894H1.96775V47.794H2.10345C2.10345 48.2529 2.51057 48.4496 3.12125 48.5807C3.52837 48.384 3.86764 48.2529 4.20691 48.1218V47.9251C5.36042 47.794 6.37822 47.4006 8.07455 47.9251V48.1218H8.75308C8.75308 47.9907 8.75308 47.9251 8.82094 47.8595C8.88879 47.794 8.95664 47.794 9.09235 47.794C9.09235 47.5317 9.1602 47.335 9.1602 47.0728C9.56732 47.0728 9.83874 47.2039 10.0423 47.794V48.9741C9.63518 49.1052 9.29591 49.3019 9.09235 49.433V49.5641H8.88879C8.82094 49.5641 8.75308 49.4986 8.75308 49.433C8.68523 49.4986 8.61738 49.5641 8.61738 49.5641C8.54953 49.5641 8.48167 49.4986 8.48167 49.433V49.5641H7.66743V49.3674C6.58178 48.8429 6.17466 48.9085 5.63183 49.1052V49.9575H5.76754V50.2853H5.9711C6.03895 50.4164 6.51392 51.6621 5.76754 52.0554V52.5144H5.63183C5.49612 52.9077 5.29256 53.5633 5.63183 54.5468H5.76754V54.6779C6.1068 54.9401 6.44607 55.0712 7.26031 55.2024V55.3991H7.39602C7.39602 55.3335 7.46387 55.2679 7.53172 55.2024V55.3991H8.27811V55.5302C9.22806 55.6613 10.1101 55.858 10.9244 56.0547V56.2513H11.3994V56.7103C10.2459 56.7103 9.22806 56.3825 8.82094 56.3169H7.05675C5.9711 56.8414 6.1068 56.7758 6.1068 58.087C6.31036 58.4804 6.51393 58.8738 6.58178 59.3327H6.78534C6.85319 60.5784 6.9889 61.824 7.1246 63.1353C7.05675 63.5286 6.37822 65.4299 7.46387 65.9544C7.59958 66.2822 7.87099 66.8722 8.95665 67.1345V67.3311H12.2136V67.1345C12.8243 67.1345 14.2492 66.6756 14.9277 66.5444V66.4133H15.1992C15.1992 65.9544 15.8777 66.0199 16.2848 65.8888V65.7577C17.099 65.4954 17.7776 65.2988 18.524 65.1021C18.524 64.7087 18.9311 64.7087 19.3382 64.512C19.4061 64.3154 19.4739 64.1842 19.6096 64.0531C20.4239 63.9875 20.6953 63.0041 20.6953 62.4141C20.4917 62.283 20.2882 62.2174 20.0846 62.0863V61.824C18.9311 61.6929 18.1847 61.5618 18.049 61.1684H17.9133C17.574 59.7261 16.9633 59.595 16.2848 59.2016V58.6115H17.6419C18.1168 58.8082 18.1168 59.2016 19.2704 59.5294V59.7261H21.4417C21.4417 59.7261 21.4417 59.6605 21.5095 59.6605V64.5776C21.2381 64.6432 21.0345 64.7087 20.831 64.7743C20.4239 65.0365 20.0167 65.2332 19.7453 65.561V65.6921C18.9989 66.1511 19.0668 65.8232 18.8632 66.61C18.8632 67.4623 20.2203 67.5934 21.5095 67.659V68.7735ZM21.5095 29.3713V28.9124H22.4595C22.3916 28.978 22.3916 29.0435 22.3238 29.1091C22.7309 29.1746 23.2058 29.2402 23.613 29.7647C23.2058 29.7647 22.5952 29.7647 22.3916 29.3713H21.5095ZM23.6808 37.3042V37.7631H23.2737C23.2058 37.6976 23.138 37.632 23.138 37.5665V37.7631H22.3238V37.9598C22.0523 38.0254 21.8488 38.0254 21.5774 38.0909V36.0586H21.6452C21.6452 36.3864 21.9845 36.8453 22.7309 37.1731C23.0023 37.2386 23.3416 37.3042 23.6808 37.3042ZM23.6808 34.4851V35.0096C23.4773 34.944 23.2737 34.8784 23.0023 34.8129C22.9344 34.7473 22.9344 34.6818 22.9344 34.6162H21.5095V33.7639C21.7809 33.7639 21.9845 33.7639 22.2559 33.8295V34.0262C22.7309 34.1573 23.2058 34.2884 23.6808 34.4851ZM23.6808 24.192V24.8476C23.6808 24.7821 23.613 24.7821 23.613 24.7821C23.5451 24.6509 23.4773 24.6509 23.4773 24.5854C23.0023 24.5198 22.5952 24.4542 22.1881 24.3887C22.1202 24.2576 22.1202 24.1264 22.1202 23.9953C22.663 24.1264 23.138 24.192 23.6808 24.192ZM23.6808 49.2363C23.3416 49.0396 23.0701 48.9085 23.0701 48.9085V48.6463C21.8488 48.3185 21.5095 47.8595 21.7809 47.4006C21.9166 47.335 22.1202 47.335 22.2559 47.335C22.2559 47.2695 22.3238 47.2039 22.3916 47.1384C22.3916 47.2039 22.3916 47.2695 22.4595 47.335V47.1384H22.663C22.663 47.2039 22.7309 47.2695 22.7987 47.335C22.7987 47.2695 22.8666 47.2039 22.9344 47.1384V47.335C23.2058 47.335 23.3416 47.4006 23.613 47.5317V49.2363H23.6808ZM23.6808 53.9567H23.4773V53.76C23.0023 53.76 22.663 53.1044 22.663 53.0389C22.0523 52.7111 21.7809 52.3832 21.5095 52.1866V51.2031C21.9845 51.3343 22.5273 51.4654 23.0701 51.5965V51.7932H23.6808V53.9567ZM21.5095 59.7916C21.5095 59.6605 21.5774 59.595 21.5774 59.5294V58.546H21.5095V55.7924C21.9845 55.7924 22.663 55.9235 23.3416 56.0547V56.2513H23.6808V63.922C23.4094 63.9875 23.2737 64.0531 23.0023 64.1187V64.3809C22.4595 64.512 21.9845 64.6432 21.5774 64.7087V59.7916H21.5095ZM21.5095 16.1936V16.5214C21.6452 16.5214 21.8488 16.5869 21.9845 16.7181V16.3247C21.8488 16.2591 21.6452 16.2591 21.5095 16.1936ZM21.5095 6.68721C21.6452 6.68721 21.8488 6.62165 21.9845 6.62165V6.42497C22.1202 6.22829 22.3238 6.03161 22.4595 5.90049H22.663C22.7987 4.91708 23.0701 4.26145 23.3416 3.73697H23.4773C23.5451 3.47472 23.613 3.27804 23.6808 3.14692V13.44V14.0956V17.0459C23.4094 16.9803 23.2737 16.9803 23.0023 16.9147V16.5869C23.2058 16.4558 23.3416 16.3902 23.4773 16.3247V15.6035C23.0701 15.2757 22.663 15.0135 22.2559 14.6857C22.2559 14.3579 21.8488 14.489 21.5095 14.7512V11.801C21.7131 11.7354 21.9166 11.7354 22.2559 11.7354C22.3238 11.4076 22.3238 11.2109 22.663 11.2109C23.2737 9.8997 22.7309 8.52293 22.663 7.53952C22.1202 7.21171 21.7809 7.2117 21.5095 7.34282V6.68721ZM23.6808 69.0357C23.4773 68.9702 23.3416 68.9046 23.0701 68.8391C22.5952 68.7735 22.0523 68.7735 21.5095 68.7735V67.8557C21.8488 67.8557 22.2559 67.9212 22.4595 67.9212V68.1179H22.663C22.663 68.0523 22.7309 67.9868 22.7987 67.9212V68.1179C23.0701 68.1834 23.4094 68.1834 23.613 68.249V69.0357H23.6808ZM23.6808 24.8476V24.192H23.7487V24.3887C24.0201 24.4542 24.2236 24.5198 24.4951 24.5854C24.4951 24.6509 24.5629 24.6509 24.6308 24.7821C24.8343 24.7821 25.0379 24.8476 25.1057 24.9132C25.1057 25.1099 25.1736 25.3065 25.2415 25.5032H25.0379C24.4272 25.0443 24.0879 24.9132 23.6808 24.8476ZM23.6808 37.6976V37.2386C24.1558 37.3042 24.6308 37.3698 25.0379 37.4353C25.0379 37.5009 25.1057 37.632 25.1057 37.7631C24.6308 37.6976 24.1558 37.6976 23.6808 37.6976ZM26.3271 35.8619V36.0586C25.8521 35.9274 25.3772 35.8619 25.0379 35.7963V35.6652C24.7665 35.6652 24.6986 35.4029 24.6308 35.3374C24.2915 35.2063 24.0201 35.0751 23.6808 34.944V34.4195C23.8165 34.4195 23.9522 34.4851 24.0879 34.5506V34.7473C24.2236 34.7473 25.1057 34.8784 25.3772 35.5341C25.5807 35.5341 25.8521 35.5996 26.0557 35.6652V35.7963C26.1235 35.8619 26.1914 35.8619 26.3271 35.8619ZM26.3271 53.8256H25.3772V54.0223H23.6808V51.8587H24.4951C24.6308 51.5965 24.7665 51.3343 24.9022 51.2031C24.97 51.2031 25.0379 51.2031 25.1057 51.2031V50.4164H24.9022C24.9022 50.023 24.2236 49.4986 23.7487 49.2363V47.5317C23.9522 47.5973 24.2237 47.7284 24.5629 47.8595C25.1057 47.8595 25.5807 47.8595 26.1235 47.9251V48.1218C26.1914 48.1218 26.3271 48.1873 26.4628 48.1873V53.8256H26.3271ZM23.6808 56.2513C24.5629 56.3825 25.3772 56.5136 26.3271 56.6447H26.395V62.0863C26.1235 62.6108 25.5129 63.1352 25.1736 63.3975C25.1057 63.3975 24.97 63.3975 24.9022 63.4631V63.6597C24.4951 63.7253 24.0879 63.8564 23.7487 63.922V56.2513H23.6808ZM26.3271 17.3737C25.3772 17.2425 24.4951 17.177 23.613 17.0459V14.0956C23.6808 14.1612 24.1558 14.489 24.1558 14.7512C24.4272 15.0135 24.6986 15.2101 25.0379 15.5379C25.2414 15.6691 25.5129 15.8002 25.7843 15.9313C25.7843 16.0624 25.8521 16.128 25.92 16.2591C26.0557 16.3247 26.1914 16.3903 26.3271 16.3903V17.3737ZM23.6808 3.21249C24.0201 3.21249 24.0879 2.75356 24.1558 2.55688C24.2915 2.36019 24.4951 2.16351 24.7665 1.96683C25.1736 1.77015 25.6486 1.57345 26.0557 1.44233C26.1914 1.37677 26.2592 1.37677 26.395 1.37677V2.36018C26.2592 2.42574 26.1235 2.49131 26.0557 2.49131C26.0557 2.75355 25.1057 3.14691 24.9022 3.3436C24.6986 3.80252 24.4951 4.19589 24.4272 4.65482H24.2915V6.35941H24.4272C24.5629 6.49053 24.7665 6.62166 24.9022 6.81834C25.3772 6.68722 25.7843 6.62165 26.395 6.62165V7.60506C26.1914 7.67062 25.9878 7.7362 25.8521 7.80176V7.99843C25.0379 8.32624 25.1057 8.12955 25.0379 8.98185H24.8343V10.6864H25.0379C25.3093 11.342 25.5807 11.9321 26.3271 12.5221V13.7022H26.1914V13.5056C26.0557 13.44 25.9878 13.44 25.92 13.44C24.97 12.6533 24.4272 12.5877 23.613 13.3744V3.21249H23.6808ZM26.3271 70.4125C25.7843 69.888 25.2414 69.6913 24.8343 69.5602V69.3635C24.4272 69.298 24.0201 69.1669 23.6808 69.0357V68.249C24.1558 68.3146 24.6986 68.3801 25.1057 68.4457V68.6424H25.5129V68.8391C25.7843 68.9046 26.0557 68.9702 26.395 69.1013V70.4125H26.3271ZM26.3271 35.993V35.7963C26.6664 35.8619 27.0056 35.9274 27.2771 35.993V36.3208C26.9378 36.2552 26.6664 36.1897 26.395 36.1897V35.993H26.3271ZM26.3271 56.6447C27.2092 56.448 28.2949 56.3825 29.3127 56.2513V56.0547C29.6519 55.9235 30.059 55.7924 30.3983 55.6613C30.7376 54.1534 29.7198 54.219 29.0412 53.9567V53.76H26.3271V48.1218C27.1413 48.4496 29.5841 49.0396 29.5841 47.5973H29.4484C29.2448 47.2039 29.1769 47.0072 28.702 46.8106V46.6139H28.4984V46.4172C28.1591 46.4172 27.8199 46.0894 27.6163 45.8271V45.5649C27.8877 45.5649 28.227 45.5649 28.4984 45.6305V45.8271C28.8377 45.8271 30.2626 46.2205 31.6197 46.2861V50.0886H31.5518V50.2853C30.6697 50.5475 30.6697 50.7442 31.0768 51.7276C31.2125 51.8588 31.4161 51.9243 31.6875 52.121V58.8082C31.2804 59.2016 30.7376 59.5294 30.4662 59.6605V59.8572C29.8555 60.0539 29.3805 60.2506 28.7698 60.5128V60.6439C27.8199 60.8406 26.9378 60.7751 26.7342 61.6274H26.5307C26.5307 61.7585 26.4628 61.9551 26.395 62.0863V56.6447H26.3271ZM26.3271 12.5877C26.5985 12.7844 27.0056 12.9811 27.4128 13.1122V13.3089C27.8877 13.44 28.3627 13.5056 28.9055 13.6367C28.9055 13.7022 28.9734 13.7678 29.0412 13.8334C29.0412 13.7678 29.1091 13.7022 29.1769 13.6367C29.1769 13.7022 29.2448 13.7678 29.3127 13.8334C29.3127 13.7678 29.3805 13.7022 29.4484 13.6367V13.8334H29.5841C29.5841 13.7678 29.6519 13.7022 29.7198 13.6367C29.7198 13.7022 29.7876 13.7678 29.8555 13.8334C29.8555 13.7678 29.9233 13.7022 29.9912 13.6367C29.9912 13.7022 30.059 13.7678 30.1269 13.8334C30.1269 13.7678 30.1947 13.7022 30.2626 13.6367V13.8334H30.4662V13.6367C30.9411 13.6367 31.0768 13.3744 31.6875 13.1122V14.8168C31.3483 14.8168 30.9411 14.8823 30.6697 14.9479C29.9912 15.3413 29.2448 16.6525 30.4662 17.3737C30.8733 17.3737 31.3483 17.3737 31.6875 17.2425V20.1272C31.484 19.0127 31.4161 18.816 30.6697 18.6849C29.7198 18.8816 29.9912 18.9471 29.6519 19.6683C29.5841 19.6683 29.5841 19.6683 29.5162 19.6683V20.3239H29.6519C29.8555 21.6351 30.2626 22.6185 31.7554 23.7331V24.5198C31.484 24.4543 31.2125 24.4543 31.1447 24.4543V24.2576C29.6519 23.602 29.1091 22.8808 28.9734 21.8318H28.7698C28.702 21.3073 28.6341 20.9795 28.5663 20.5206H28.3627C28.227 19.6683 28.1591 18.8816 28.0913 18.0948C27.8199 17.9637 27.6842 17.8326 27.4128 17.8326V17.6359C27.0056 17.5703 26.6664 17.5048 26.3271 17.4392V16.3903C26.6664 16.5869 27.0735 16.7181 27.5485 16.9147C27.9556 16.7181 28.4306 16.5214 28.9055 16.3903V15.2757C28.6341 15.079 28.4306 14.9479 28.1591 14.8168V14.6201C27.6163 14.4234 27.0735 14.2267 26.5985 14.0301V13.8334H26.2593V12.5877H26.3271ZM26.3271 6.68721L28.4984 6.62165V6.94945C28.0913 6.94945 27.6842 7.01502 27.4128 7.08058V7.34282C27.0056 7.47394 26.6664 7.60507 26.3271 7.73619V6.68721ZM26.3271 1.44233H26.6664V1.24566H30.2626V1.44233C30.4662 1.44233 30.7376 1.44233 31.009 1.5079C31.1447 1.57346 31.4161 1.63901 31.7554 1.70457V4.13034C31.7554 4.1959 31.7554 4.32701 31.6875 4.39258H30.3305C30.059 3.6714 29.8555 3.08135 29.6519 2.36018C29.5162 2.22906 29.3127 2.03239 29.1091 1.96683H27.0735C27.0735 2.16351 26.7342 2.36019 26.395 2.49131V1.44233H26.3271ZM26.8699 83.0002C26.2592 82.4102 27.0735 81.2301 27.1413 81.1645H27.3449C27.5485 80.7712 27.752 80.3778 27.8877 80.1156C28.227 80.1156 28.4984 79.0666 28.9734 78.8699C29.1091 78.6077 29.3126 78.3454 29.5162 78.0832H29.6519C29.7198 77.6898 29.8555 77.2309 29.9912 76.9686C29.8555 76.4441 29.7198 76.0508 29.6519 75.5263H29.4484C29.3127 74.7396 29.3127 74.2806 28.702 74.0839C28.6341 73.8217 28.5663 73.5595 28.4984 73.3628C28.0234 73.3628 28.0234 72.576 28.0234 72.5105H27.8199C27.6163 72.1171 27.4128 71.8549 27.2092 71.5926H27.0056C26.7342 71.0681 26.5307 70.7403 26.2593 70.5436V69.0357C26.9378 69.3635 27.752 69.9536 28.227 71.0026C28.5663 71.0026 29.1769 72.7727 29.3805 73.2316H29.5162C29.7198 73.8873 29.9233 74.4773 30.1947 75.1985H30.3983C30.3983 75.4607 30.4662 75.7885 30.6019 76.1163H30.8054C30.9411 76.6408 31.2125 76.8375 31.6875 77.7553V78.2798C31.6875 78.6076 30.8054 78.8043 30.6019 78.9354C30.3983 79.1321 30.1269 79.3288 29.9233 79.5255C29.7198 80.1811 28.4984 80.5089 28.2949 81.4268C27.752 81.8857 27.6842 82.8035 26.8699 83.0002ZM31.6875 77.7553L31.7554 77.8209H31.9589V78.2143C31.8232 78.2143 31.7554 78.2143 31.6875 78.2798V77.7553ZM31.6875 52.1866H31.7554C32.3661 52.2521 33.0446 52.3177 33.7231 52.3832V52.5799H35.3516V52.3832C35.8266 52.3177 36.573 52.121 37.1836 51.7932V51.5965C38.0657 51.2687 38.2014 51.2031 38.6086 50.6131C38.9478 50.482 39.3549 50.3509 39.6264 50.3509V50.1542H39.6942V52.1866C39.6264 52.2521 39.5585 52.3177 39.4228 52.3832C39.1514 52.6455 38.88 52.9077 38.6086 53.17C38.405 53.9567 37.7265 54.4156 37.0479 54.6123C36.9801 54.6779 36.9801 54.7434 36.9801 54.809C36.3016 54.9401 35.7587 55.1368 35.0802 55.3335C35.0802 55.7269 34.1302 55.9891 33.9945 56.1202C33.9945 56.3825 33.3839 56.6447 33.1803 56.7103C33.0446 56.9725 33.0446 57.2348 32.9767 57.497H32.841C32.7732 57.6937 32.7053 57.8904 32.7053 58.1526C32.5696 58.1526 32.5018 58.1526 32.4339 58.2182C32.2982 58.4804 32.0946 58.8082 31.6875 59.0705V52.1866ZM39.6942 27.4701C39.6942 27.3389 39.6264 27.1423 39.6264 27.0767H39.4228V26.88C39.4907 26.8145 39.5585 26.7489 39.6264 26.7489C39.5585 26.6833 39.4907 26.6178 39.4228 26.6178H39.6264V26.4211C39.5585 26.3555 39.4907 26.3555 39.4228 26.3555H39.6264C39.6264 26.1588 39.6942 25.8966 39.6942 25.6999V27.4701ZM39.6942 38.0909C39.6264 38.0254 39.4907 37.9598 39.4228 37.8943C39.3549 37.5665 39.3549 37.3042 39.3549 36.9764C39.4228 36.9108 39.4907 36.9108 39.6264 36.9108V36.7142H39.6942V38.0909ZM31.6875 46.3516C32.9767 46.4172 34.2659 46.3516 34.6731 45.5649C34.6731 44.647 34.4695 44.3848 34.3338 43.8603C34.6731 43.9914 34.9445 44.1226 35.2837 44.2537V44.3848H35.7587V44.5815C36.573 44.7782 37.8622 44.8437 39.2871 44.5815V44.3848H39.6942V48.4496C39.4228 48.4496 39.2192 48.4496 39.2192 48.5152C37.455 48.384 35.8266 47.9251 35.4873 49.4986C34.2659 49.6952 33.0446 49.8919 31.6875 50.1542V46.3516ZM31.6875 23.7331C31.8232 23.7986 31.9589 23.8642 32.0946 23.9298C33.1124 23.9953 34.1981 24.1265 35.3516 24.2576C35.5552 24.7165 35.4873 24.7821 35.3516 25.1754H33.1803C33.1803 25.1099 33.1124 25.0443 33.1124 24.9787V25.1754H32.841V24.9787C32.5696 24.9132 32.4339 24.8476 32.1625 24.8476C32.1625 24.6509 31.9589 24.5854 31.6197 24.5198V23.7331H31.6875ZM31.6875 13.1122V14.8168C31.8232 14.7512 31.9589 14.7512 32.0946 14.7512V14.5545C32.3661 14.489 32.7053 14.4234 33.0446 14.3579C33.1803 14.6201 33.3839 14.8823 33.6553 15.1446C33.3839 15.4068 33.1803 15.6691 33.0446 15.9969H32.841C32.7732 16.0624 32.7053 16.1936 32.7053 16.3903H32.5018C32.2982 16.8492 31.9589 17.0459 31.6875 17.177V20.0617C31.7554 20.1928 31.7554 20.2584 31.7554 20.3239H31.9589C32.1625 20.9795 32.9767 21.7007 34.1981 22.0285V22.1596H37.1158C37.1836 22.0941 37.2515 21.9629 37.3194 21.8974V21.1762C35.8944 21.1762 34.1981 20.8484 33.4517 20.5862V20.3895C33.2481 20.3239 33.1124 20.2584 33.0446 20.2584V20.1272C32.9767 20.1272 32.9089 20.1272 32.841 20.1272C32.7732 19.9305 32.7053 19.7339 32.7053 19.5372C32.6375 19.5372 32.5696 19.5372 32.5018 19.5372C31.3483 16.8492 33.791 16.2591 36.098 16.0624V15.9313H36.3694C36.3694 15.538 36.4373 15.6035 36.7087 15.5379C36.7087 15.3413 36.7087 15.1446 36.7765 15.0135C36.0301 14.8823 35.3516 14.7512 34.6052 14.6201V14.4234C33.791 14.2267 33.4517 13.8989 33.4517 13.5056H33.2481C32.841 12.3255 33.0446 11.342 33.2481 10.6864H33.4517C33.5874 9.8997 34.0624 8.9163 34.3338 8.52293C35.2837 8.52293 35.3516 8.78516 35.5552 10.5553H35.7587C35.7587 10.8176 35.623 10.8831 35.9623 11.2765C36.0301 11.2109 36.098 11.2109 36.2337 11.2109C36.1658 10.0308 36.098 8.91629 36.098 7.73619C35.6909 7.53951 35.2159 7.34283 34.8766 7.21171V6.94945C34.1302 6.62165 33.6553 5.70381 33.5874 5.57269H32.5696V7.34282H32.7732C32.7732 7.5395 32.841 7.7362 32.9089 8.12956C32.9767 8.12956 33.0446 8.12956 33.1124 8.12956V9.57189H32.841C32.7732 9.70301 32.7053 9.8997 32.7053 10.0308H32.5018C32.2303 10.9487 32.0946 11.9977 31.8911 12.9811C31.8911 13.0466 31.7554 13.1122 31.6875 13.1122ZM31.6875 1.70457C32.6375 1.83569 34.0624 1.77014 34.4695 1.24566C35.148 1.04897 35.7587 0.852277 36.5051 0.721155V0.52448C37.4551 0.327797 38.6086 0.131122 39.6264 0V0.983415C38.9478 0.917854 38.405 0.983407 37.9979 1.18009V1.37677C37.6586 1.50789 37.3872 1.70459 37.1158 1.96683V2.49131H37.3194C37.3194 2.62243 37.3193 2.75356 37.3872 2.88468C37.6586 3.08136 38.0657 3.21248 38.405 3.40916C38.5407 3.60584 38.7443 3.80253 38.88 4.06477C39.0835 3.99921 39.2871 3.99921 39.5585 3.99921C39.5585 3.93364 39.6264 3.93366 39.6264 3.93366V6.0316C39.4228 6.0316 39.1514 6.03161 39.0157 6.09717C38.88 5.76936 38.8121 5.44156 38.7443 5.17932C38.6086 5.11376 38.4729 5.11375 38.405 5.11375C38.405 4.5237 37.3872 4.39258 37.3872 4.39258V4.1959C37.1836 4.13034 36.9801 4.06477 36.8444 4.06477C36.4373 3.01579 36.3694 3.21249 35.8944 2.88468V2.62244H34.4017V2.88468C33.1124 3.08136 32.0268 3.08136 31.6197 4.13034V1.70457H31.6875ZM45.1903 57.8904V69.0357C44.8511 68.9702 44.444 68.9702 44.0368 68.8391V68.6424H43.6976V68.4457C43.2904 68.3801 42.9512 68.249 42.6798 68.1179V67.9212C42.4083 67.7901 42.2048 67.7245 42.0012 67.659C41.9334 67.4623 41.9334 67.3312 41.9334 67.1345H41.7298C41.187 66.1511 41.3905 65.2332 42.3405 65.0365C42.3405 64.9054 42.3405 64.8398 42.4084 64.8398C43.2226 64.3154 43.969 63.1352 43.969 62.3485C42.8155 61.234 42.8833 60.185 42.6798 59.2016H42.4762V58.546H42.6798C42.6798 58.3493 42.6798 58.1526 42.7476 58.0215C43.3583 58.0215 43.5619 58.087 44.2404 58.8082C44.3761 58.7427 44.5118 58.7427 44.6475 58.7427C44.6475 58.6115 44.7154 58.546 44.7832 58.4804H44.9868C45.0546 58.2837 45.1225 58.1526 45.1903 57.8904ZM39.6942 50.1542H43.019C43.019 50.5475 43.969 50.8098 44.5797 50.9409C44.7832 51.2031 44.9868 51.3998 45.2582 51.6621V52.4488C44.9868 52.121 44.7154 51.8588 44.444 51.6621C42.2048 51.4654 41.187 51.072 39.6942 52.2521V50.1542ZM45.1903 38.2876V36.8453C44.2404 36.0585 43.5619 35.2062 43.4262 34.4851C43.2904 34.4195 43.2226 34.354 43.1547 34.354C43.1547 34.0262 43.1547 33.6984 43.2226 33.4361H43.4262C43.4262 32.7149 43.9011 32.7149 44.3761 32.5838C44.3761 32.5182 44.4439 32.4527 44.5118 32.3871V32.5838C44.7154 32.7149 44.9189 32.8461 45.1903 32.9116V29.6336C45.0546 29.7647 44.7832 29.8958 44.5797 30.0269C44.1725 29.8958 43.7654 29.7647 43.5619 29.6336C42.9512 28.519 41.9334 28.2568 41.9334 27.7323H41.7298C41.0513 26.4211 41.4584 24.9132 41.187 24.7165H40.5085V24.8476C40.1013 24.9787 40.1692 24.7821 39.8299 25.5688H39.6264C39.6264 25.6344 39.5585 25.7655 39.5585 25.831V27.6012C39.5585 27.7323 39.6264 27.7979 39.6264 27.929C39.7621 28.1257 39.8978 28.2568 40.1013 28.4535H40.237C40.712 29.2402 41.3227 30.0269 42.5441 30.8792V31.7315H42.3405C42.2048 31.9282 42.1369 32.1249 42.0691 32.3216C41.8655 32.3871 41.7298 32.4527 41.5941 32.5182V32.7149C40.5763 32.9772 40.5763 33.895 40.7799 35.0751H40.9156C41.1191 35.4029 41.3227 35.7963 41.5941 36.1897H41.7977C42.0012 36.5175 42.3405 36.8453 42.6798 37.1075C42.7476 37.1731 43.5619 37.1731 43.9011 37.8943H44.1047V38.0909C44.5118 38.0254 44.7832 38.1565 45.1903 38.2876ZM39.6942 44.3848H39.7621V44.2537C40.3727 43.9914 40.9834 43.7948 41.662 43.5981C41.662 43.467 41.662 43.4669 41.7298 43.4014C42.4762 43.2703 42.9512 42.7458 43.2904 42.1557H43.494V41.959H43.2904C43.2904 41.6312 42.5441 41.369 42.4762 41.369C42.0012 40.8445 41.5941 40.4511 41.187 40.0578C41.1191 39.9922 41.1191 39.8611 41.1191 39.73C40.3049 39.3366 39.9656 38.2876 39.9656 38.2221C39.8978 38.1565 39.7621 38.091 39.6942 38.0254V36.7142H40.1013V36.9108C40.237 36.9108 40.9834 37.1731 41.3227 37.8943C41.5263 38.0254 41.7298 38.1565 42.0012 38.2221V38.3532C42.2726 38.4188 42.8155 38.5499 43.019 39.1399C43.4261 39.271 43.8333 39.4677 44.2404 39.73V39.9267C44.5797 39.9267 44.7832 40.1889 44.9868 40.2545C45.0546 40.1889 45.1225 40.1233 45.1903 39.9922V43.008C44.9868 42.9424 44.7154 42.9425 44.5118 42.8769C44.1047 43.0736 43.6976 43.2703 43.4262 43.4669V43.5981C42.8833 43.7948 42.4762 43.9914 42.0012 44.2537C42.0012 44.647 41.1191 44.8437 40.9156 44.9093C40.8477 44.9749 40.8477 45.0404 40.8477 45.1715C40.712 45.1715 40.5763 45.1715 40.5085 45.2371V45.9583C40.8477 46.2861 40.8477 46.4172 40.9156 46.745H41.0513V47.8595H40.9834C40.8477 48.3185 40.237 48.4496 39.6942 48.5807V44.3848ZM45.1903 7.80176V6.2283C44.9868 6.68722 45.0546 7.21171 45.1903 7.80176ZM45.1903 15.3413V11.2109C44.8511 11.2765 44.5118 11.4076 44.2404 11.4732V11.6699H44.0368C43.7654 12.6533 43.6297 13.6367 43.4262 14.6201H43.2226C43.1547 14.8823 43.0869 15.1446 43.019 15.4068C43.019 15.4724 43.0869 15.538 43.1547 15.6035H43.969V15.4068H45.1903V15.3413ZM45.1903 21.2418C44.6475 21.1762 44.1047 21.1762 43.5619 21.1762V20.7828C44.0368 20.7173 44.6475 20.7173 45.1903 20.7173V21.2418ZM39.6942 0.065545C39.7621 0.065545 39.8978 0 39.9656 0C41.4584 0.196683 42.9512 0.393362 44.5797 0.590045V0.78672C44.7832 0.852281 44.9868 0.852289 45.2582 0.91785V3.01579C44.444 3.14691 43.8333 3.60584 43.494 4.65482H43.2904C43.2226 5.90048 43.2226 7.40838 42.6798 8.98185H42.4762C42.2726 9.30965 42.0691 9.76859 41.9334 10.0964H41.7298C41.5263 10.6209 41.3227 11.0142 41.1191 11.6043C41.0513 11.9977 41.0513 12.4566 41.0513 12.8499H40.9834C40.712 13.44 40.3727 13.44 40.237 13.5056C39.7621 13.1122 40.1692 12.4566 40.237 12.2599H40.3728C40.4406 11.7354 40.5084 11.2765 40.5763 10.8176C40.712 10.4242 40.8477 10.0308 40.9834 9.83415H41.1191C41.3227 9.04742 41.5263 8.32623 41.7977 7.60506H42.0012C42.0012 7.40838 42.0012 7.14615 42.0691 6.88391H42.2726V5.76936H42.0691C42.0012 5.57268 42.0012 5.376 42.0012 5.24488C39.9656 5.24488 40.8477 5.04819 39.8299 6.0316H39.7621V3.93366C39.9656 3.80254 40.1013 3.73696 40.3049 3.6714V3.47473H40.9834V3.6714H41.7298C41.7977 3.60584 41.9334 3.54029 42.0691 3.47473C42.0691 3.21248 42.0691 3.08136 42.1369 2.88468H42.3405V1.77014C42.0691 1.63901 41.8655 1.50789 41.5941 1.44233V1.24566C40.9156 1.18009 40.3727 1.11452 39.7621 1.04896V0.065545H39.6942ZM56.1147 68.4457H55.7755V68.6424H55.5719V68.4457C55.504 68.5113 55.4362 68.5768 55.4362 68.6424H54.4862V68.8391C54.4184 68.7735 54.4184 68.7079 54.4184 68.6424C54.3505 68.7079 54.2827 68.7735 54.2827 68.8391C54.2148 68.7735 54.147 68.7079 54.147 68.6424H53.9434V68.8391C53.8756 68.7735 53.8077 68.7079 53.8077 68.6424C53.7399 68.7079 53.672 68.7735 53.672 68.8391C53.6041 68.7735 53.5363 68.7079 53.5363 68.6424H52.7221V68.4457C51.6364 68.1179 50.5508 67.1345 50.0079 66.8722H47.0902C46.751 66.7411 46.4117 66.6755 46.2081 66.61C45.326 65.3643 45.326 65.7577 45.5296 64.5776C45.801 64.3154 46.0046 64.4465 46.0046 64.0531H48.2437C48.9223 63.7253 48.2437 62.3485 48.108 62.0863H47.9045V59.8572H48.108C48.1759 59.4638 48.2437 58.4148 48.9223 58.4148V58.2182C49.1937 58.1526 49.8044 57.497 49.8044 57.2348C49.3972 57.2348 49.058 57.3003 48.7866 57.4314V57.6937C48.3794 57.8904 48.3116 57.8248 48.1759 58.2837H47.9723C47.7009 58.8082 47.4973 59.2016 47.3616 59.7261H47.0902C46.9545 60.0539 46.8188 60.4472 46.6831 60.775C46.0046 60.9062 45.9367 60.5128 45.5296 60.5128V58.9393H45.7332C45.9367 57.6937 46.9545 56.5136 48.1759 56.2513C48.1759 56.1202 48.2437 55.9891 48.3116 55.9235C48.2437 55.7924 48.2437 55.7269 48.2437 55.6613C47.8366 55.7924 47.3616 55.9235 47.0902 56.0547V56.2513C46.6153 56.3825 46.3438 56.5791 45.9367 56.7758C45.9367 56.9069 45.801 57.2348 45.5296 57.2348C45.3939 57.497 45.326 57.6937 45.1903 57.8904V69.0357C46.276 69.1013 47.1581 69.1669 47.8366 70.937H48.0402C48.108 72.1171 48.1759 73.4283 48.1759 74.674C48.3116 74.9362 48.4473 75.1985 48.6509 75.5263C49.3294 75.5919 50.9579 76.7064 51.7043 77.952H51.84C51.9078 78.1487 51.9757 78.3454 52.1114 78.5421C52.1792 78.5421 52.2471 78.6077 52.3828 78.6732C52.4506 78.6077 52.5863 78.5421 52.6542 78.5421C52.9256 77.5587 52.7221 76.5097 52.6542 75.7885H52.5185C52.2471 75.3296 52.1114 74.9362 51.84 74.5429H51.7043C51.5686 74.3462 51.4328 73.7561 51.0936 73.7561V73.5594H50.89V72.3138H51.0936V71.9204H51.2971C51.2971 71.8549 51.2971 71.7237 51.365 71.5926C51.6364 71.3304 51.9078 71.1337 52.1792 70.937H52.4506V70.7403C52.7221 70.5436 53.0613 70.347 53.4006 70.2158V70.0847C53.8077 69.888 54.2827 69.6913 54.6898 69.6258V69.4291C55.0969 69.298 55.5719 69.1669 56.0469 69.1013V68.4457H56.1147ZM45.1903 51.5965C45.3939 51.7932 45.5975 51.9243 45.7332 52.0554V52.5144H45.326C45.2582 52.4488 45.2582 52.4488 45.1903 52.3832V51.5965ZM45.1903 40.0578V43.0736C45.9367 43.1391 46.6153 43.3358 47.2938 43.4669C48.4473 43.4669 49.8044 43.4014 51.2971 42.8769V42.6802C51.9078 42.1557 52.5185 41.6968 53.197 41.1723C53.4006 40.9756 53.5363 40.9101 53.8077 40.7789C54.147 39.8611 54.4862 39.7955 55.1648 39.2055C55.1648 38.8777 55.1648 38.5499 55.2326 38.2876C54.0113 38.2876 54.2148 38.3532 53.4684 39.0743V39.271C53.1292 39.4022 52.9935 39.5988 52.6542 40.0578H52.5185C51.9757 40.7134 51.5685 40.9101 50.7543 41.3034V41.5001C50.415 41.5657 50.1436 41.6312 50.0079 41.6968C48.5152 41.6968 47.0902 41.959 46.751 40.9756H46.5474C46.6153 40.9101 46.6831 40.8445 46.751 40.8445C47.1581 39.6644 47.2259 39.5989 48.3116 39.271C48.2437 38.9432 48.1759 38.681 48.108 38.4843H47.9045V38.0909H48.108C48.1759 37.5009 48.2437 37.1075 48.3794 36.6486C48.3794 34.6818 47.7688 34.2884 47.3616 33.1739C46.4117 32.3871 45.801 32.1249 45.801 31.5348H45.5975C45.6653 31.4693 45.7332 31.4037 45.801 31.4037C45.801 31.207 45.801 31.0104 45.8689 30.8137C46.1403 30.617 46.4117 30.4859 46.6153 30.3547V30.1581C47.3616 29.8303 47.6331 29.3713 47.9723 28.7157H48.1759C48.108 28.3879 48.0402 28.1912 47.9723 27.929H47.4295V28.0601C46.3438 28.1912 46.0046 28.9124 45.326 29.568V32.8461C45.5296 32.9772 45.7332 33.0427 45.8689 33.1739C46.1403 33.5672 46.2081 33.9606 46.8188 34.1573C46.8867 34.2884 47.0224 34.4195 47.1581 34.6162C47.1581 34.7473 47.1581 34.8785 47.2259 35.0096H47.4295V37.2386H47.0902C46.9545 37.4353 46.8867 37.5665 46.8188 37.6976H46.2081V37.5665C45.801 37.3698 45.4617 37.1075 45.1903 36.8453V38.2876C45.4617 38.4188 45.7332 38.5499 45.9367 38.7465C45.9367 38.9432 45.9367 39.1399 46.0046 39.3366C45.801 39.5333 45.4617 39.7955 45.1903 40.0578ZM56.1147 11.801V10.6864C55.6398 10.8176 55.2326 10.8831 54.9612 10.9487V11.0798C54.3505 11.2109 53.7399 11.3421 53.1292 11.4732V11.6699H52.7899V11.8665C52.1792 11.9976 51.6364 12.1943 50.9579 12.4566V12.6533C50.6186 12.7188 50.2115 12.7844 50.0079 12.9155C49.6008 13.1778 49.1937 13.5056 48.9223 13.7678V13.9645H48.7187C48.4473 14.2923 48.2437 14.5545 48.108 14.8823H46.8867V14.6857C46.5474 14.489 46.3438 14.3579 46.0724 14.2267C46.0724 12.9811 46.3438 12.9811 47.3616 12.6533C47.5652 12.2599 47.7009 12.2599 48.108 11.9321C48.3116 11.1454 48.7187 9.96526 48.4473 9.30965C47.3616 8.52292 46.9545 7.73619 46.751 7.40839H46.5474V7.14615H46.4117C46.2081 6.68722 46.0046 6.29384 45.8689 5.96604H45.3939C45.326 6.09716 45.2582 6.16272 45.1903 6.29384V7.86732C45.326 8.19513 45.4617 8.45736 45.5296 8.71961H45.7332C45.9367 9.11297 46.1403 9.44079 46.4117 9.83415H46.5474V10.0964H46.751V10.3586H46.5474V10.6209C46.276 10.752 46.0046 10.8831 45.7332 11.0142V11.1454C45.5975 11.2109 45.3939 11.2765 45.1903 11.2765V15.4068H46.3438V15.6035C46.6153 15.7346 46.9545 15.8658 47.2938 15.9969V16.1936H47.4974C47.9723 16.6525 48.3794 17.177 48.8544 17.7015V17.9637H49.058V18.226H49.2615V18.4226C49.2615 18.3571 49.3294 18.2915 49.3972 18.226H49.6008V17.5703H49.3972C49.2615 17.1114 49.1258 16.6525 49.058 16.1936H48.8544V15.8002H48.6509C48.7187 15.7346 48.7866 15.6691 48.8544 15.6691V15.2757C49.1258 15.1446 49.4651 15.0135 49.8044 14.8823V14.6857C50.5508 14.489 51.2293 14.2923 51.9757 14.0956C52.6542 12.85 54.147 12.3255 55.5719 11.9321H56.1147V11.801ZM56.1147 27.1423C55.979 27.0111 55.8433 26.8144 55.7755 26.6833C54.8255 26.3555 53.672 24.5198 53.6042 24.192C52.1792 23.5364 52.0435 25.241 51.84 26.2244H51.7043C51.6364 26.6833 51.5686 27.1422 51.5686 27.6667C51.2971 27.6012 51.0936 27.5356 50.89 27.5356C50.8222 26.2244 50.5507 25.1754 50.2793 24.3887H50.0758C49.6687 23.2086 49.2615 22.8808 48.7866 22.553V22.3563C48.4473 22.3563 48.5151 22.2252 48.2437 21.9629C47.3616 21.7007 46.5474 21.5696 45.6653 21.3073V21.1106H45.1225V20.5862H45.4618C46.3438 20.7173 47.2938 20.914 48.1759 21.1106C48.1759 21.4384 49.3294 21.7007 49.4651 21.7662C49.8044 22.4219 50.0079 23.2742 51.6364 22.8152V22.6185H51.7721C51.9757 21.504 52.1792 20.3895 52.4506 19.3405H52.5864C52.7899 18.6849 52.9935 18.1604 53.2649 17.6359C53.3327 17.6359 53.4006 17.6359 53.4684 17.6359V17.4392C54.0113 16.7836 54.5541 16.2591 55.2326 15.7346C55.504 15.538 55.8433 15.4068 56.1147 15.2757V16.3247C55.3005 16.5869 54.8934 17.177 54.147 18.0948H53.9434C53.8077 18.4226 53.672 18.6849 53.5363 19.0127H53.4006V19.2749H53.197V21.3729H53.4006V22.094C53.4684 22.094 53.4684 22.0941 53.5363 22.1596C53.7399 22.6841 54.147 23.0119 54.6898 23.7986H54.8934C54.9612 24.1264 55.4362 24.7165 55.8433 24.7165C55.9112 24.7821 55.979 24.8476 56.0469 24.9787V27.1423H56.1147ZM56.1147 36.1897C55.1648 35.5341 54.2827 34.6162 54.147 34.0262C53.7399 34.0262 53.672 33.1739 53.6042 33.1083C53.0613 33.1083 52.7221 31.7971 52.7221 31.7315C52.7221 31.4693 52.7221 31.4037 52.7899 31.1415H53.4684V31.3382C54.0113 31.4693 54.622 31.4693 55.5719 31.3382V31.1415H55.7755V30.8137H55.979C55.979 30.6826 56.1147 30.5514 56.1826 30.4203V31.8626C55.7076 31.9938 55.3005 32.1249 54.8255 32.256C54.7577 32.4527 54.7577 32.6494 54.7577 32.9772C54.8255 32.9772 54.8934 33.0428 55.0291 33.1083C55.0291 33.4361 55.6397 33.6328 56.1826 33.7639V36.1897H56.1147ZM56.1147 63.1353C55.7755 62.0207 54.7577 61.7585 54.147 61.4307V61.234C53.4684 61.1684 52.7899 61.1028 52.1114 61.0373C52.0435 60.8406 52.0435 60.7095 52.0435 60.5784H52.4506V60.5128C52.9256 60.2506 53.4006 60.1194 53.9434 59.8572V59.6605C54.6898 59.2016 55.2326 58.3493 55.4362 57.8248C55.504 57.7592 55.5719 57.7592 55.7076 57.7592V57.2348C55.7755 57.1692 55.8433 57.1036 55.9112 57.1036C55.8433 57.0381 55.7755 56.9725 55.7076 56.9725H55.9112V56.7758H55.7076V56.3169H55.504C55.2326 55.0712 52.5863 55.9891 52.4506 55.9891V56.1858H51.7043V55.9891C51.365 55.858 51.0257 55.7924 50.8222 55.7269C50.6186 55.2679 50.415 54.809 50.2793 54.4156H50.0758C49.6687 53.4322 49.1937 53.1044 49.1258 52.7111C48.9223 52.5799 48.7866 52.4488 48.7866 52.121H48.583C48.1759 50.0231 47.7009 48.6463 49.6008 47.5317C50.2115 46.6139 51.6364 45.696 52.3149 44.7782C52.9256 44.3848 52.6542 44.2537 53.197 44.2537V44.1226C53.8077 43.8603 54.3505 43.6636 55.0291 43.4669H55.7076V43.5981H55.9112V43.9914C55.3683 44.2537 55.504 44.1226 55.2326 44.5815C54.3505 45.2371 53.2649 46.6794 52.4506 47.1384C52.1792 47.5317 52.0435 47.9251 51.7721 48.3185C51.7043 48.3185 51.6364 48.3185 51.5686 48.384C51.4328 49.0396 51.365 49.6297 51.2971 50.3509C51.4328 50.9409 51.6364 51.1376 52.3149 52.0554C52.5185 52.0554 52.7899 52.0554 53.0613 52.121C53.4684 51.8588 54.5541 50.8753 54.6898 50.3509H54.8934C55.0969 49.6952 55.2326 49.2363 55.504 48.6463H56.1147V49.433C55.979 50.2853 55.6398 51.2687 56.1147 52.121V58.4148C55.979 58.546 55.9112 58.7427 55.504 59.0049V60.2506C55.6397 60.2506 55.979 60.3817 56.1147 60.5784V63.1353ZM45.1903 0.852285C46.0046 0.917846 46.8867 1.11453 47.7009 1.24566V1.44233C48.6509 1.57345 49.5329 1.77013 50.415 2.03238V2.22907C51.0936 2.36019 51.7043 2.4913 52.4506 2.68799V2.95025C53.4684 3.01581 54.7577 3.01579 56.1147 3.3436V4.72038C56.0469 4.65482 55.979 4.58927 55.9112 4.52371C55.6398 4.45815 55.4362 4.45814 55.2326 4.45814V4.26147C55.1648 4.26147 55.0969 4.26147 55.0291 4.26147V4.45814C54.8255 4.5237 54.6219 4.58925 54.4862 4.65482C54.4862 4.98262 54.2827 5.0482 54.6898 5.90049C55.0969 6.16274 55.2326 6.55609 55.4362 7.40839H55.6398V7.60506H55.8433C55.9112 7.93287 55.979 8.32623 56.0469 8.58848V8.71961C55.2326 8.71961 54.9612 8.52293 54.8934 8.19513H54.6898C54.4184 7.53952 54.2827 7.08059 54.0791 6.5561H53.8756C53.7399 6.2283 53.6041 5.90048 53.4684 5.7038H53.3327V5.44156C52.7221 4.91707 52.2471 4.39259 51.7043 3.93366C51.5686 3.8681 51.365 3.80253 51.1614 3.73697V3.54029C50.0079 3.34361 48.8544 3.21247 47.7009 3.01579C46.6831 3.01579 45.7332 2.95023 45.0546 3.08136V0.852285H45.1903ZM56.1147 69.0357V68.3801H56.7254C56.7254 68.5113 56.7254 68.7079 56.7254 68.9046C56.454 68.9046 56.3183 68.9702 56.1147 69.0357ZM56.1147 8.52293C56.1147 8.58849 56.1147 8.65404 56.1826 8.65404H56.1147V8.52293ZM56.7933 11.6043V11.801H56.0469V10.6864C56.3183 10.6209 56.5218 10.5553 56.7933 10.4898V11.6043ZM56.1147 15.4068C56.3861 15.2757 56.5897 15.2102 56.8611 15.079V16.2591C56.5897 16.3247 56.3183 16.3902 56.1147 16.4558V15.4068ZM56.1147 30.4859C56.1826 30.4203 56.1826 30.4203 56.1826 30.3547C57.0647 30.3547 56.7933 27.929 56.7933 27.7323C56.5897 27.4701 56.3183 27.2078 56.1147 27.0767V25.1099C56.3183 25.3065 56.5897 25.6343 56.8611 26.0277V31.7971C56.5897 31.8627 56.3861 31.8626 56.1147 31.9282V30.4859ZM56.7933 35.1407C56.7254 35.3374 56.7254 35.4685 56.7933 35.5996V36.583C56.5218 36.4519 56.3183 36.3208 56.0469 36.1897V33.6984C56.2504 33.6984 56.3861 33.7639 56.5218 33.7639V33.9606H56.7933V35.1407ZM56.1147 52.1866C56.2504 52.5144 56.5218 52.711 56.8611 52.9733V58.0215C56.3861 58.0871 56.2504 58.2182 56.1147 58.4804V52.1866ZM56.1147 48.6463C56.1826 48.9085 56.1826 49.1052 56.1147 49.433V48.6463ZM56.7933 66.2166H56.6576C56.5897 66.2822 56.5218 66.3477 56.5218 66.4133C56.0469 65.4299 56.1826 64.9054 56.1826 64.3809H56.3861V64.1187H56.1826C56.1826 63.7909 56.1826 63.3975 56.0469 63.2008V60.6439L56.1147 60.7095C56.1826 60.7095 56.3183 60.7751 56.5218 60.8406H56.7933V66.2166ZM56.1147 3.27805C56.3183 3.34361 56.5218 3.40916 56.7254 3.47473C56.7254 3.54029 56.7254 3.60584 56.7254 3.6714C56.7933 3.6714 56.7933 3.73697 56.8611 3.73697V5.31043C56.5897 5.11374 56.3861 4.8515 56.1147 4.65482V3.27805ZM58.2182 43.7948V44.9093C57.8789 45.2371 57.5396 45.5649 57.4039 45.8271C57.2004 45.8271 57.0647 45.8927 56.929 45.9583C56.8611 45.696 56.8611 45.4338 56.8611 45.2371C57.3361 44.3192 57.4718 44.1226 58.2182 43.7948ZM58.2182 29.1091V29.5025C58.2182 29.9614 58.1503 30.4203 58.0146 30.8792H57.8111C57.6754 31.0103 57.6075 31.207 57.5396 31.4037C57.0647 31.4693 56.8611 31.4037 56.8611 31.7315C56.7933 31.7315 56.7254 31.7315 56.7254 31.7971V26.0277C56.7933 26.2244 56.8611 26.4211 56.9968 26.6178C57.3361 26.7489 57.2682 27.6667 57.9468 27.6667C58.1503 28.1257 58.2182 28.519 58.2182 29.1091ZM58.2182 13.2433C58.2182 12.4566 58.0146 11.7354 58.0146 11.6043H57.8111V11.4076H57.0647V11.6043H56.7933V10.4898C56.929 10.4242 57.0647 10.3586 57.2004 10.2931V10.0964C57.5396 9.76859 57.8789 9.50633 58.2182 9.24409V13.2433ZM56.7933 15.079C57.1325 14.9479 57.4039 14.8168 57.8111 14.6857V14.489C58.0825 14.3578 58.2182 13.8989 58.2182 13.5056V16.7181C58.0825 16.5214 58.0146 16.3247 57.8111 16.2591C57.4039 16.2591 57.0647 16.3247 56.7933 16.3247V15.079ZM56.7933 35.5996C56.8611 35.7963 56.9968 35.9274 57.3361 35.993V36.1897C57.6754 36.3208 57.9468 36.5175 58.2182 36.583V37.1731C57.8789 37.1075 57.6075 36.9764 57.4039 36.9108V36.7142C57.2004 36.6486 56.9968 36.583 56.7933 36.5175V35.5996ZM58.2182 34.8784C57.7432 34.944 57.2682 35.0096 56.7933 35.1407V34.0262H58.1503V33.8295H58.2182V34.8784ZM58.2182 64.3153C58.1503 64.512 58.0146 64.6432 57.7432 64.7743C57.6075 65.1021 57.4039 65.9544 56.7933 66.2166V60.775C57.0647 60.7095 57.4039 60.6439 57.7432 60.6439C57.7432 60.5128 57.8111 60.3161 57.8789 60.1194H58.0825V58.6771H57.8789C57.6754 58.3493 57.6075 58.1526 57.2004 57.9559H56.7933V52.9077C56.7933 52.9077 56.8611 52.9733 56.929 52.9733C56.9968 52.9733 57.0647 52.9733 57.2004 53.0389V53.3011C57.5396 53.4322 57.9468 53.5633 58.2182 53.6945V64.3153ZM56.7933 3.6714C57.2004 3.80252 57.6754 3.99922 58.0146 4.1959V4.39258C58.0825 4.39258 58.1503 4.45814 58.2182 4.45814V6.75278C58.1503 6.62165 58.1503 6.49053 58.0146 6.35941C57.6075 5.96604 57.1325 5.57269 56.7933 5.24488V3.6714ZM58.2182 29.5025V29.1091V29.5025ZM58.2182 44.9093V43.7948C58.4217 43.7292 58.6253 43.6636 58.8289 43.5981V43.4669H59.711C59.3717 43.9259 58.761 44.4504 58.2182 44.9093ZM61.068 22.8808V23.8642H60.7966C60.9323 23.143 60.8645 23.0775 61.068 22.8808ZM58.2182 36.6486C58.5574 36.8453 58.8967 36.9764 59.1681 37.1731C59.1681 37.2386 59.236 37.3698 59.3038 37.5009C58.8289 37.4353 58.4896 37.3698 58.2182 37.2386V36.6486ZM61.068 34.7473C60.8645 34.5507 60.6609 34.4195 60.4573 34.2228C60.0502 34.2884 59.711 34.4195 59.3717 34.5506V34.7473C58.9646 34.7473 58.6253 34.8129 58.286 34.8784V33.8295C58.5574 33.7639 58.8967 33.7639 59.1681 33.7639C59.8467 33.5017 60.1181 33.1083 60.1859 32.5182H60.4573V32.3216H60.1859C60.2538 32.3216 60.3216 32.256 60.4573 32.256C60.3216 32.1904 60.2538 32.1249 60.1859 32.1249C60.2538 32.0593 60.3216 31.9938 60.4573 31.9938C60.3216 31.9282 60.2538 31.8626 60.1859 31.8626C60.2538 31.7971 60.3216 31.7315 60.4573 31.7315V31.5348H60.1859C60.2538 31.4693 60.3216 31.4693 60.4573 31.4693C60.593 30.8792 60.6609 30.4203 60.8645 29.8958C60.9323 29.8958 61.068 29.8303 61.1359 29.8303V34.7473H61.068ZM61.068 51.7932H59.9824C59.9824 51.4654 60.0502 51.2031 60.1181 50.9409C60.4573 50.5475 60.7288 50.2853 61.0002 50.023V51.7932H61.068ZM61.068 59.9228C61.0002 59.9228 60.9323 59.9228 60.8645 59.8572V59.6605H59.7788V59.8572C59.5752 59.9228 59.3717 59.9883 59.1681 60.0539C58.8967 60.6439 58.8289 61.4962 60.1859 61.8896V62.1518C60.593 62.3485 60.7966 62.6108 60.8645 62.9386H61.068V66.1511H60.8645V66.4789H60.5252C60.593 65.9544 60.593 65.4299 60.6609 64.9709C60.4573 63.7253 59.9145 63.9875 59.711 63.7253V63.5286H59.236V63.7253C58.4896 63.922 58.4217 64.1187 58.286 64.3809V53.8256C58.3539 53.8911 58.4217 53.8911 58.4896 53.8911V54.0878C58.6932 54.0878 58.8289 54.1534 59.1681 54.2189C59.1681 54.5468 59.1681 54.809 59.236 55.0713C58.8289 55.5957 58.6253 56.7758 59.4395 57.7592C59.9145 58.0215 60.4573 58.2182 61.1359 58.2182V59.9228H61.068ZM58.2182 4.45814C58.5574 4.58926 58.8967 4.65483 59.1681 4.85151C59.3717 5.31044 60.2538 6.0316 61.0002 6.94945V11.4076C60.8645 11.2765 60.7288 11.0798 60.5252 10.9487H60.1181C59.6431 11.801 59.711 12.4566 59.711 13.8334H60.6609V13.6367H61.0002V15.079C60.593 15.1446 60.1859 15.2101 59.9145 15.2757C59.6431 15.9969 59.9824 16.4558 60.1181 17.4392H60.3895C60.5252 18.0293 60.6609 18.6193 60.8645 19.2094H61.068V20.8484C60.5931 20.1928 59.9824 19.7994 59.7788 19.5372C59.711 19.3405 59.6431 19.0782 59.5752 18.8816H59.3717C59.1003 18.3571 58.8967 17.8326 58.761 17.3081H58.5574C58.4217 17.0459 58.3539 16.8492 58.2182 16.7181V13.5056V13.1777V9.24409C58.286 9.17853 58.286 9.17854 58.3539 9.17854C58.3539 8.19513 58.4217 7.34283 58.2182 6.75278V4.45814ZM65.4785 47.9907C65.3428 48.2529 65.2749 48.4496 65.2071 48.6463H65.4785V47.9907ZM65.4785 20.3895V21.5696C65.0035 21.7007 64.5964 21.8318 64.1893 21.9629V22.094C64.0536 22.094 63.9857 22.0941 63.9179 22.1596C63.7822 22.3563 63.375 23.0119 64.1893 23.4053C64.1893 24.2576 64.1893 25.1754 64.2571 26.0277C64.1893 25.9622 64.0536 25.8966 63.9179 25.8966C63.2393 22.8152 62.9679 23.7331 61.068 23.7986V22.8152C61.1359 22.6841 61.3394 22.553 61.6108 22.2252C61.6108 21.6351 61.4073 21.1762 61.068 20.7828V19.2094C61.2037 19.6027 61.8823 20.3895 62.4251 21.2418H63.1036C63.5107 20.9795 63.85 20.6517 64.5285 20.6517V20.455C64.7999 20.455 65.1392 20.3895 65.4785 20.3895ZM65.4785 18.2915V19.0127C65.3428 18.4882 65.0714 18.4882 65.0714 18.0948H65.4785V18.2915ZM65.4785 39.3366C64.8678 39.271 64.325 39.2055 63.85 39.2055C63.6464 38.8777 63.4429 38.5499 63.3072 38.2876H63.1715C63.1715 37.3042 63.0358 36.4519 62.7644 36.0586C62.018 35.8619 61.9501 35.6652 61.8144 35.3374C61.543 35.1407 61.2716 34.944 61.0002 34.7473V29.8303C61.068 29.8303 61.1359 29.7647 61.2716 29.7647C61.2037 30.617 61.1359 31.3382 61.068 32.1249C61.2037 32.4527 61.4073 32.9116 61.543 33.2394C61.6109 33.2394 61.6787 33.305 61.8144 33.3706C61.9501 33.895 62.4251 34.2884 63.3072 35.0751C63.5107 35.0096 63.7143 35.0096 63.9179 35.0096C64.4607 34.5507 64.7321 34.2228 65.4106 34.0262V36.6486C64.8 36.5175 64.5285 36.5175 64.2571 36.9764C64.2571 37.8943 64.2571 38.2221 65.4106 38.681V39.3366H65.4785ZM61.068 62.873V66.0855C61.4751 64.8398 61.4073 63.8564 61.068 62.873ZM65.4785 65.9544C65.2749 65.2988 65.0714 65.1021 64.7321 65.0365C64.2571 64.2498 64.0536 64.0531 63.6464 63.5942C63.5107 63.2008 63.375 62.873 63.3072 62.5452H63.1715C62.9679 62.0207 62.7644 61.5618 62.6286 61.1029H62.3572C61.8823 60.1194 61.4751 60.0539 61.0002 59.9228V58.087C61.543 58.087 62.018 58.0871 62.6286 57.9559C62.7644 57.8248 62.9679 57.6937 63.1715 57.6281V57.3659C64.1893 57.0381 63.85 53.17 63.85 52.7111C63.2393 51.9899 63.0358 51.8588 62.7644 51.7276V51.5309H61.0002V51.7276V49.8919C61.068 49.8264 61.1359 49.7608 61.2037 49.6952C61.3394 49.1708 61.4751 48.7118 61.6108 48.2529C61.6787 48.1873 61.7466 48.1218 61.8144 48.1218C61.7466 48.0562 61.6787 47.9907 61.6108 47.9907H61.8144V47.794C61.7466 47.7284 61.6787 47.6628 61.6108 47.6628C61.6787 47.6628 61.7466 47.5973 61.8144 47.5973C61.7466 47.5317 61.6787 47.4662 61.6108 47.4662C61.6787 47.4006 61.7466 47.335 61.8144 47.335C61.7466 47.2695 61.6787 47.2039 61.6108 47.2039H61.8144V47.0072H61.6108C61.543 46.2861 61.2037 45.4338 61.068 45.3026C61.068 45.106 61.068 44.9748 61.1359 44.7782C61.3394 44.7126 61.543 44.647 61.8144 44.5815C62.0858 44.3192 61.9501 44.1881 62.4251 44.1881V44.057C63.0358 43.7947 63.7822 43.1391 64.3928 42.4835C64.6642 42.418 64.9357 42.2868 65.2749 42.1557C65.2749 42.0246 65.3428 41.8935 65.4106 41.7624H65.5463V42.418H65.4106C65.2749 42.5491 65.1392 42.6802 65.0714 42.8769C63.7822 43.5981 63.0358 44.7126 62.6286 46.1549H62.3572C62.4251 46.1549 62.4929 46.2205 62.6286 46.2861V46.4828H62.3572V46.6794H62.6286C62.4929 46.6794 62.4251 46.745 62.3572 46.8106C62.4251 46.8106 62.4929 46.8106 62.6286 46.8761V49.2363H62.3572V49.7608C62.6965 49.8919 63.3072 50.482 64.1893 50.6787C64.325 50.8753 64.8 51.3343 65.4106 51.5965V53.3011C65.2071 53.6945 65.0035 54.0878 64.9357 54.5468H64.7321V55.2679H65.0035C65.0714 55.4646 65.1392 55.7924 65.2749 56.0547C65.3428 56.0547 65.4106 56.1202 65.4785 56.1202V65.9544ZM61.068 6.88391C61.2716 7.14615 61.543 7.40838 61.6787 7.60506C61.7466 7.60506 61.8144 7.60506 61.8823 7.60506C62.018 7.99843 62.1537 8.39181 62.3572 8.78517C62.4929 9.04742 62.7644 9.2441 62.9679 9.44078C63.4429 9.63747 63.9857 9.83414 64.5285 10.0308V10.2275C64.8678 10.2931 65.2071 10.3586 65.4785 10.4242V11.0798C65.0714 11.0142 64.6642 11.0142 64.325 11.2765C64.325 11.801 64.5285 12.5221 65.4785 13.2433V15.3413C65.3428 15.2102 65.2071 15.079 65.0714 15.0135C63.5786 14.6201 62.2215 14.7512 61.068 15.0135V13.5711C61.4073 13.5056 61.7466 13.5056 62.0858 13.5056C62.6965 13.2433 62.0858 12.5877 61.8144 12.3255H61.6108C61.4073 11.7354 61.2037 11.4732 61.0002 11.342V6.88391H61.068ZM65.4785 53.4978V51.7932C65.5463 51.8588 65.6142 51.8587 65.682 51.9243V53.4978H65.4785ZM68.0569 44.5815V49.6297C67.9891 49.6297 67.8534 49.5641 67.7176 49.5641V49.3674C67.5141 49.2363 66.9034 49.0396 66.9034 48.6463C66.4284 48.6463 65.8856 48.5807 65.4785 48.5807V47.9251C65.8856 47.2039 66.632 46.4828 67.3105 46.1549C67.5141 45.7616 67.5141 45.1715 67.9891 45.1715C67.9891 44.9749 68.0569 44.7782 68.0569 44.5815ZM65.4785 41.959C65.8178 41.7624 66.3606 41.1723 66.632 40.9101C66.5641 40.3856 66.4963 40.0578 66.4284 39.5989C66.0892 39.4677 65.7499 39.4022 65.4785 39.3366V38.6154C65.6142 38.6154 65.7499 38.681 65.8856 38.7465C66.0213 38.6154 66.2249 38.5499 66.4284 38.4843C66.8356 37.5664 66.5641 36.9108 66.0892 36.9108V36.7142C65.8856 36.7142 65.6142 36.6486 65.4106 36.583V33.9606H65.6142V33.7639C65.8856 33.5672 66.0892 33.3705 66.4284 33.1739C66.5641 31.7971 66.8355 30.617 67.0391 29.7647H67.3105C67.4462 29.2402 67.6498 28.8468 67.7855 28.3223H67.9891C68.0569 28.1912 68.1248 27.9946 68.1248 27.8634V30.4859C68.1248 30.617 68.0569 30.6826 67.9891 30.7481H67.7855C67.7177 31.4037 67.0391 32.1249 67.9891 32.9772C68.0569 32.9772 68.1248 32.9116 68.1248 32.9116V34.2884C67.9891 34.2884 67.7855 34.2884 67.6498 34.354C67.4462 34.6818 67.0391 35.4029 67.9891 35.7308H68.1248V36.7142V36.7797C67.9212 36.7797 67.7177 36.7797 67.6498 36.8453C67.4462 37.1075 66.9713 37.9598 67.7855 38.6154C67.9212 38.6154 68.0569 38.5499 68.1248 38.5499V39.2055C67.3105 39.271 66.9034 40.1233 68.1248 40.7789V40.8445V41.6312C67.9212 41.6312 67.7855 41.6968 67.6498 41.7624C67.5141 42.1557 67.3784 42.6147 67.3105 43.1391C67.1748 43.1391 67.107 43.1391 67.0391 43.1391C66.8355 43.4669 66.6998 43.7948 66.5641 44.1881C66.2927 44.1226 66.0892 44.1226 65.8856 44.1226C65.8856 43.5325 65.8856 43.1391 65.9535 42.6147H65.4106V41.959H65.4785ZM68.0569 67.4623C67.9212 67.659 67.7855 67.8556 67.6498 68.1179H66.8356C66.4963 67.7245 66.157 67.3967 65.8856 67.0689C65.8178 66.6755 65.6821 66.3477 65.6142 66.0199H65.4106V56.3169C65.8178 56.5136 66.157 56.7103 66.157 57.0381C66.2927 57.0381 66.4284 57.1036 66.632 57.1692C66.8356 57.1036 67.107 57.0381 67.3784 57.0381V56.8414C67.4462 56.8414 67.7855 56.7103 68.0569 56.5791V58.1526C68.0569 58.2837 67.9891 58.3493 67.9212 58.4804H67.7176V59.0705H67.9212C67.9891 59.2016 68.0569 59.2672 68.0569 59.3327V61.6929C67.9212 61.7585 67.7177 61.824 67.5819 61.8896C67.3784 62.0863 67.2427 62.283 66.9713 62.4141C66.7677 63.3975 66.2927 64.1187 67.8534 64.9709H67.9891V67.4623H68.0569ZM65.4785 13.3089C65.6142 13.3744 65.6821 13.44 65.8178 13.5056C65.9535 13.8334 65.9535 13.8334 66.2249 13.8334V14.0301C66.8356 14.1612 67.4462 14.2267 68.0569 14.3579V15.6035H67.5819C67.2427 16.0624 67.5819 16.3902 67.7176 16.9803H67.9212C67.9212 16.9803 67.8534 18.1604 68.0569 19.0782V22.8152C68.0569 22.553 67.9891 22.3563 67.9212 22.1596H67.7176C67.2427 21.2418 67.1748 21.3729 66.6998 21.3729V21.1762C66.632 21.2418 66.5641 21.3073 66.5641 21.3729C66.4963 21.3073 66.4284 21.2418 66.4284 21.1762H66.2249V21.3729C65.9535 21.4384 65.6821 21.504 65.4785 21.5696V20.3895C65.6142 20.3895 65.7499 20.3239 65.8856 20.3239C65.9535 19.6027 65.7499 19.4716 65.6142 19.0127H65.4106V18.2915H65.6142C65.6821 18.5538 66.2249 18.7504 66.2249 19.2094H66.4284C66.4284 19.2749 66.4284 19.3405 66.4963 19.4716H66.9034C66.9034 19.3405 66.9713 19.2749 67.0391 19.2094H67.3105V17.5703H67.0391C66.632 16.4558 66.0213 15.9313 65.4785 15.4068V13.3089ZM65.4785 10.4898C66.2249 10.6209 66.8356 10.752 67.5819 10.8831V11.0142C67.7855 11.0798 67.9212 11.0798 68.1248 11.0798V11.801C67.8534 11.7354 67.5819 11.7354 67.4462 11.7354V11.5387H66.9034V11.342C66.3606 11.2765 65.8856 11.0798 65.4785 11.0798V10.4898ZM70.0925 59.9883V61.5618C69.2783 61.4962 68.6676 61.4962 68.0569 61.6274V59.2672C68.3283 59.6605 68.7355 59.7261 69.8211 59.7261V59.9228C69.889 59.9228 70.0247 59.9228 70.0925 59.9883ZM70.0925 55.5957V57.4314H69.0069C69.0069 57.497 69.0069 57.5626 69.0069 57.6937C68.2605 57.8248 68.3283 57.6937 68.1248 58.1526V56.5791C68.5319 56.3825 68.8712 56.1202 68.8712 55.9891C69.0747 55.858 69.4818 55.6613 70.0925 55.5957ZM70.0925 20.455V21.2418C69.414 21.1106 69.2783 21.0451 68.8033 21.2418C68.8033 21.7007 68.8712 21.6351 69.2783 22.1596C69.414 22.1596 69.889 22.3563 69.889 22.553C69.9568 22.553 70.0925 22.6185 70.1604 22.6185V23.9298C70.0247 23.8642 69.8211 23.7986 69.6854 23.7331C69.5497 23.7331 69.3461 23.7986 69.2783 23.8642C69.1426 24.8476 69.0069 25.7655 68.8712 26.6833C68.939 26.8144 69.0069 26.9456 69.0747 27.0767C69.3461 27.0111 69.6175 26.9456 69.8211 26.9456C70.0247 26.6178 69.9568 26.29 70.2282 26.2244V27.2734C70.1604 27.4045 70.0925 27.5356 70.0247 27.6012C69.8211 27.929 69.6175 28.7157 69.2783 28.7157C68.8712 29.3058 68.464 29.8303 68.1926 30.4203V27.7979C68.8033 25.8966 68.5319 24.0609 68.1926 22.6185V18.8816C68.3283 19.4061 68.5319 19.7994 68.8712 19.9961V20.1272C69.1426 20.3239 69.6175 20.3895 70.0925 20.455ZM70.0925 66.4133H69.8211V66.61C69.3461 66.7411 68.8712 66.9378 68.3962 67.1345C68.2605 67.2656 68.1926 67.3967 68.0569 67.5278V64.9709C68.8033 64.9054 69.4818 64.971 70.0925 64.512V66.4133ZM70.0925 36.7142H70.0247C70.0247 38.1565 69.6854 40.2545 69.5497 41.959H69.2783C69.0747 42.8113 68.8712 43.6636 68.7354 44.5159H68.5997C68.3962 44.9749 68.2605 45.3682 68.1248 45.8271C68.1248 46.6794 68.3283 48.0562 70.0925 48.5152V50.4164C69.889 50.3509 69.6854 50.2853 69.4818 50.2853V50.0886C68.5997 49.6297 68.3962 49.4986 68.0569 49.4986V44.4504C68.1926 43.7948 68.3962 43.1391 68.5997 42.4835H68.7354V41.6968C68.464 41.5001 68.3283 41.5001 68.0569 41.5001V40.8445C68.2605 40.7789 68.5319 40.7134 68.7354 40.6478C68.7354 40.2545 68.8033 39.9267 68.8712 39.5989C68.5997 39.4022 68.3283 39.3366 68.0569 39.3366V38.681C68.3962 38.5499 68.7355 38.4843 69.0069 38.3532C69.0069 37.5665 69.0747 37.2387 68.8033 36.9764C68.5997 36.9108 68.5319 36.9108 68.3962 36.9108V36.7142C68.3283 36.7797 68.2605 36.8453 68.2605 36.9108C68.1926 36.8453 68.1248 36.7797 68.1248 36.7142C68.0569 36.7797 68.0569 36.8453 67.9891 36.8453V35.8619C68.1248 35.7963 68.3283 35.7308 68.5319 35.7308C68.5997 35.5996 68.7355 35.4029 68.8712 35.2718C68.8712 34.8129 68.8033 34.6162 68.5319 34.354C68.3283 34.354 68.1926 34.354 67.9891 34.4195V33.0427C68.464 33.0427 69.1426 33.0427 69.8211 32.6494C69.889 32.5838 69.9568 32.4527 70.0247 32.3871V34.354V35.2718V36.7142H70.0925ZM68.0569 14.2923C68.5319 14.3579 68.939 14.489 69.4818 14.5545V14.7512C69.6854 14.8168 69.889 14.8823 70.0925 14.9479V16.5869C69.889 16.3247 69.6854 16.0624 69.6854 16.0624H69.4818V15.8658C68.7355 15.6691 68.3962 15.6035 68.0569 15.5379V14.2923ZM68.0569 11.0798C68.3962 11.1454 68.6676 11.2109 68.939 11.2109C69.1426 11.2765 69.3461 11.3421 69.5497 11.4076V11.6043H69.9568V11.801H70.0925V12.5877C70.0247 12.5877 69.889 12.5221 69.8211 12.5221V12.3255C69.0747 12.0632 68.5319 11.9321 68.0569 11.801V11.0798ZM72.196 61.1684V61.6929C71.3817 61.6929 70.7032 61.6273 70.0247 61.5618V59.9883C70.1604 59.9883 70.2961 60.0539 70.4318 60.0539C70.8389 60.3817 70.9746 60.7751 71.721 61.234C71.9246 61.1684 72.0603 61.1684 72.196 61.1684ZM72.196 56.8414V58.8082C71.5174 58.1526 70.9068 57.8904 70.2282 57.7592V57.497H70.0247V55.6613H70.2282C70.5675 55.858 71.0425 56.1202 71.4496 56.3825C71.7888 56.448 71.9246 56.7103 72.196 56.8414ZM72.196 65.3643C71.7888 65.4299 71.3817 65.561 71.0425 65.6921V65.8233C70.7032 65.9544 70.4318 66.0855 70.2961 66.2166V66.4133H70.0925V64.4465C70.3639 64.1842 70.5675 63.8564 70.771 63.4631H71.1103C71.246 63.7909 71.3139 64.1187 71.4496 64.3809H72.3317V65.3643H72.196ZM70.0925 48.5807C70.1604 48.6463 70.2961 48.6463 70.3639 48.6463V48.9085C71.0425 49.0396 71.6531 49.1052 72.2638 49.2363V51.3343C72.1281 51.2687 71.9924 51.2031 71.9246 51.2031C71.8567 51.072 71.7888 50.9409 71.7888 50.8753C71.1782 50.7442 70.6353 50.6131 70.0925 50.482V48.5807ZM72.196 35.5996C71.9246 35.7963 71.5853 35.9274 71.3139 35.993V36.1897C70.9068 36.3864 70.4318 36.5175 70.0247 36.7142V35.2063C70.0925 35.2063 70.1604 35.2718 70.2282 35.3374C70.6353 35.1407 71.1782 34.944 71.721 34.8784V34.4195C70.771 34.0262 70.4996 34.0262 70.0247 34.2884V32.3216C70.2961 31.9938 70.5675 31.5348 70.9746 31.3382V30.8137H70.8389C70.771 30.5514 70.771 30.2236 70.771 30.0269H71.246C71.246 30.0925 71.3139 30.1581 71.3817 30.2892H72.0603C72.0603 30.1581 72.196 30.0925 72.2638 29.8958V31.9282C71.9246 31.8626 71.5174 31.9282 71.4496 31.9282C71.246 32.1904 71.1782 32.3871 71.0425 32.6494H70.8389C70.8389 33.2394 70.7032 33.5017 71.9924 33.8295V34.0262C72.0603 34.0262 72.1281 34.0917 72.196 34.0917V35.5996ZM72.196 45.9583C71.9246 45.4338 71.7889 44.9093 71.721 44.5815H71.5174V40.8445C71.721 40.7789 71.8567 40.5167 72.2638 40.5167V45.9583H72.196ZM70.0925 14.9479C70.7032 15.1446 71.3139 15.4068 72.0603 15.8658V16.0624H72.2638V17.2425C72.196 17.2425 72.0603 17.3081 71.9924 17.3737C71.7888 17.767 71.8567 19.2094 72.2638 20.455V22.3563C71.9924 22.9463 71.9924 23.0119 71.9924 23.8642C72.0603 23.9298 72.196 23.9953 72.2638 24.0609V25.4377C71.9246 25.241 71.5174 25.3065 71.3139 25.3065C71.246 25.5032 71.1103 25.831 71.0425 26.1588H70.8389C70.4996 26.5522 70.2961 27.0111 70.0247 27.4701V26.4211H70.2282C70.2961 25.6999 70.4318 25.1754 70.5675 24.5854C70.4318 24.2576 70.2282 24.1264 69.9568 23.9953V22.6841C70.0925 22.7497 70.2282 22.8152 70.2282 23.0119C70.4996 22.8152 70.8389 22.6185 71.1782 22.2907C71.1103 22.0941 71.0425 21.8974 70.9746 21.6351C70.7032 21.5696 70.4996 21.504 70.2282 21.4384V21.2418H69.9568V20.455H70.4996V20.6517H70.771V20.455C70.9068 20.3239 71.1103 20.2583 71.246 20.1928C71.4496 19.1438 71.1103 18.0293 70.9746 17.5703C70.6353 17.3737 70.2282 16.9147 70.0247 16.5869V14.9479H70.0925ZM70.0925 11.801C70.4318 11.801 71.0425 11.9321 71.3817 12.5221C71.6531 12.5877 71.9924 12.6533 72.2638 12.7844V13.6367C71.9246 13.5056 71.5853 13.44 71.3139 13.3089V13.1122C70.9068 12.9155 70.4996 12.7844 70.1604 12.5877V11.801H70.0925ZM73.7566 24.8476V26.29C73.4173 26.0933 73.0102 25.9622 72.8066 25.831C72.6709 25.5688 72.4674 25.5032 72.196 25.4377V24.0609C72.3317 24.1264 72.3995 24.192 72.5352 24.2576V24.4543C72.8745 24.5198 73.2138 24.5854 73.553 24.7165V24.8476C73.6887 24.7821 73.6887 24.7821 73.7566 24.8476ZM73.7566 21.7007V22.6841C73.553 22.6185 73.4173 22.553 73.3495 22.553V22.3563C73.0102 22.2907 72.6031 22.2252 72.3317 22.1596C72.3317 22.2252 72.3317 22.2907 72.2638 22.2907V20.3895C72.3317 20.455 72.3317 20.5206 72.3317 20.5862C72.6031 20.7828 72.9424 20.9795 73.1459 21.1762V21.3729C73.3495 21.4384 73.6209 21.5696 73.7566 21.7007ZM73.7566 64.5776C73.4852 64.7743 73.2816 64.9054 72.9424 64.9054V65.1021C72.671 65.1676 72.4674 65.2988 72.196 65.3643V64.3809H72.3317V64.1187C72.6031 63.922 72.8745 63.6597 73.1459 63.4631H73.3495V62.3485C73.1459 62.2174 73.0102 62.0207 72.9424 61.8896C72.7388 61.824 72.5352 61.7585 72.3317 61.6929H72.196V61.1684H72.3317C72.6031 60.9717 73.1459 60.5784 73.1459 60.3817H73.3495V59.9883H73.1459C72.8745 59.4638 72.5352 59.0705 72.2638 58.7427V56.7758C72.5352 56.9069 72.7388 56.9725 73.1459 56.9725V56.7758C73.3495 56.7103 73.6887 56.3825 73.8244 56.1858V64.5776H73.7566ZM72.196 49.2363C72.3317 49.2363 72.3995 49.3019 72.5352 49.3019C72.7388 49.8264 72.8067 50.6787 73.7566 51.3343V53.3011C73.4173 52.2521 72.8066 51.6621 72.196 51.3343V49.2363ZM73.7566 34.5506C73.3495 35.0096 72.7388 35.3374 72.196 35.5996V34.0917C72.5352 34.0917 73.3495 33.895 73.6209 33.305C73.6209 32.9772 73.553 32.5182 73.0781 32.5182C72.9424 32.1249 72.5352 31.9938 72.196 31.9282V29.8958C72.5352 29.6336 72.9424 29.2402 73.2816 29.0435C73.4173 28.7813 73.553 28.519 73.6887 28.2568V29.3058H73.6209C73.3495 29.4369 73.2138 29.6336 72.9424 29.6991C72.5352 30.4203 72.1281 30.9448 73.6887 31.4693V34.5506H73.7566ZM73.7566 47.335H73.6887V47.1384C72.9424 46.9417 72.5352 46.4172 72.196 45.9583V40.5167C72.2638 40.5823 72.3995 40.7134 72.5352 40.8445C72.5352 41.369 72.196 45.1715 73.7566 45.5649V47.335ZM72.196 16.0624V16.1936C72.6709 16.2591 73.0781 16.7836 73.7566 17.3081V19.2094C73.553 18.7504 73.4173 18.4226 73.3495 18.0948H73.1459C72.8745 17.5048 72.6031 17.3737 72.3317 17.3081H72.196V16.0624ZM72.196 12.7844C72.5352 12.85 72.8745 12.9811 73.0781 13.1122V13.3089C73.2138 13.3744 73.3495 13.44 73.553 13.5056C73.553 13.5056 73.6209 13.5711 73.7566 13.7022V14.7512C73.3495 14.489 72.9424 14.3579 72.6709 14.0956C72.3317 14.0956 72.3317 13.8334 72.196 13.6367V12.7844ZM73.7566 51.2687C73.8245 51.3343 73.9602 51.3998 74.028 51.4654C74.2316 51.8588 74.4351 52.1866 74.7065 52.5144H74.8422C75.0458 52.9077 75.2494 53.4322 75.5208 53.9567H75.7243V56.5136H75.5208C75.4529 57.2348 75.2494 57.9559 74.8422 58.7427C74.3673 58.7427 74.3673 59.3983 74.0959 59.7916C74.1637 60.0539 74.2994 60.3161 74.4351 60.5784H75.86C75.86 60.0539 76.335 59.9883 77.0136 59.9883V60.8406C76.1315 61.4307 75.2494 62.4141 74.7744 63.2008H74.6387C74.5708 63.5942 74.1637 64.0531 73.7566 64.4465V56.0547C73.7566 55.9891 73.8244 55.9235 73.8244 55.858H74.028V53.3011H73.8244C73.7566 53.2355 73.7566 53.1044 73.7566 53.0389V51.2687ZM77.0136 50.6787C75.9958 50.0886 75.9279 49.5641 75.6565 48.9085H75.4529C75.2494 47.5973 75.0458 47.4006 74.5708 47.335C74.503 47.2695 74.4351 47.2039 74.4351 47.1384V47.335H73.7566V45.4993C74.028 45.6305 74.4351 45.5649 74.7744 45.3026C74.8423 44.3848 74.8423 43.0736 75.2494 42.5491H75.6565C75.6565 43.2703 75.7922 43.9259 75.9279 44.647C75.9958 45.696 76.0636 46.745 76.1315 47.794H76.4029C76.5386 48.384 76.6743 48.7774 77.0814 49.2363V50.6787H77.0136ZM73.7566 17.3081C74.3673 17.3081 74.028 18.2915 74.7744 18.6193C74.978 19.2749 75.1815 19.7994 75.4529 20.455H75.6565C75.7243 20.914 75.9279 21.3729 76.0636 21.8974H76.335C76.4707 22.7497 76.5386 23.6675 76.6743 24.5198C76.6743 24.9787 76.7421 25.4377 76.81 25.9621C76.8779 25.9621 76.9457 26.0277 76.9457 26.0277V28.1257C76.9457 28.0601 76.9457 28.0601 76.8778 28.0601C76.81 27.9945 76.7421 27.929 76.7421 27.8634H75.86C75.6565 28.2568 75.86 29.4369 75.86 30.3547C75.7243 30.8137 75.5886 31.4037 75.5886 31.9282H75.3851V32.1904H75.5886C75.7922 32.7149 76.4707 32.7149 76.7421 33.1739C76.81 33.1083 76.8779 33.1083 76.9457 33.1083V34.354C76.7421 34.2228 76.4707 34.0917 76.2672 34.0262V33.8295C75.8601 33.6983 75.5208 33.6328 75.2494 33.5672V33.3706H74.5708C74.3673 33.8295 74.0959 34.2228 73.6887 34.4851V31.5348H73.7566V31.7315H74.2316C74.3673 31.4693 74.503 31.4037 74.5708 31.1415H74.7065V29.5025H74.5708C74.503 29.3713 74.4351 29.3058 74.4351 29.2402C74.0959 29.2402 73.8245 29.2402 73.6209 29.3058V28.2568C73.6888 28.1912 73.7566 28.1257 73.8923 28.1257C74.7065 27.1423 74.2316 26.5522 73.6209 26.2244V24.7821C73.7566 24.7821 73.8923 24.8476 74.028 24.8476V25.0443H74.4351C74.4351 24.9132 74.4351 24.8476 74.503 24.7821C74.5708 24.7165 74.6387 24.7165 74.7065 24.7165V23.7986C74.6387 23.7331 74.5708 23.7331 74.503 23.7331C74.2316 23.143 73.8923 22.8808 73.6209 22.6841V21.7007C73.6888 21.7662 73.8245 21.8318 73.8923 21.8974C74.028 21.8318 74.2316 21.7662 74.4351 21.7662C74.4351 21.6351 74.503 21.504 74.5708 21.3729H74.7065V21.1762H74.5708C74.503 20.7828 74.2316 19.1438 73.6887 19.1438V17.3081H73.7566ZM73.7566 13.7022C74.0959 14.0301 74.9101 14.5545 75.6565 14.8823C75.7243 15.2101 75.9279 15.6691 76.0636 16.0624H76.335V16.7181C76.0636 16.7181 75.8601 16.718 75.6565 16.7836C75.0458 16.0624 74.5708 15.538 73.9602 14.9479C73.8923 14.8823 73.7566 14.8168 73.6887 14.7512V13.7022H73.7566ZM80.2027 56.7758V57.3659C79.0492 57.4314 78.9813 57.2348 78.9813 58.6115C79.0492 58.9393 79.1849 59.2016 79.2527 59.5294H79.4563C79.6598 60.0539 79.5241 60.2506 80.2705 60.9717V65.1676C80.067 65.1676 79.8634 65.2332 79.5241 65.3643C79.4563 65.4299 79.4563 65.561 79.4563 65.6921H79.2527C79.0492 66.2166 78.8456 66.8722 78.642 67.5934H78.3706C78.2349 67.9212 78.0992 68.3801 77.9635 68.7079C77.8957 69.1013 77.8956 69.4291 77.8956 69.888H77.6921V71.4615H77.8956C77.8956 72.7727 77.9635 74.1495 78.0314 75.5263H77.6242C77.4885 74.7396 77.3528 74.0839 77.2171 73.3628V69.2324C77.4207 68.3801 77.5564 67.659 77.7599 67.0033H77.9635C78.0992 66.4789 78.3028 66.0199 78.4385 65.561H78.7099C78.9135 64.9054 79.117 64.3153 79.3206 63.7253H79.5241C79.6598 63.3975 79.7955 63.2008 79.9991 62.9386C79.9991 62.0863 79.6598 61.2995 79.5241 60.9062H79.3206C79.117 60.1194 78.9135 59.3327 78.7099 58.6115H78.4385C78.2349 57.8248 78.2349 57.497 78.3706 57.1036C78.5063 57.0381 78.642 57.0381 78.7777 57.0381V56.8414C79.2527 56.8414 79.7277 56.7758 80.2027 56.7758ZM77.0136 60.0539H77.1493V60.8406C77.0814 60.8406 77.0814 60.9062 77.0136 60.9062V60.0539ZM80.2027 50.3509C79.9313 50.6131 79.7277 50.8753 79.592 51.2031C78.8456 51.2031 78.2349 51.2031 77.4885 51.2031V50.9409C77.3528 50.8753 77.2171 50.7442 77.0814 50.6787V49.2363C77.3528 49.5641 77.7599 49.8264 78.2349 50.1542V50.3509H79.1849V50.1542C79.3884 50.1542 79.9991 49.4986 80.1348 49.0396H80.2705V50.3509H80.2027ZM80.2027 52.9077H79.4563C79.4563 52.0554 79.7277 51.9899 80.2027 51.9243V52.9077ZM77.0136 26.0277C77.5564 26.29 78.0992 26.6178 78.642 26.8145C78.9135 27.1423 79.1849 27.4045 79.3884 27.7323C79.9313 28.978 80.1348 30.3547 79.3884 31.9938H79.1849C79.0492 32.5183 78.7099 32.9116 78.5742 33.3706H78.3028V34.944H78.5742V35.8619H78.3028C78.2349 36.2552 78.2349 36.583 78.2349 36.9108C78.5742 37.1075 79.117 37.3698 80.1348 37.5009V39.4022C79.5241 38.8121 79.2527 38.4843 78.7099 38.4187V38.2876C78.3028 38.2221 77.7599 38.1565 77.285 38.1565C76.81 37.3042 77.4885 36.8453 77.6242 36.4519H77.8278V35.2063C77.4207 35.0096 77.3528 34.7473 77.2171 34.4195C77.0814 34.354 77.0136 34.354 76.8778 34.2884V33.0427C77.0814 32.9772 77.2171 32.9772 77.285 32.9772C77.3528 32.8461 77.4207 32.7149 77.5564 32.5838H77.7599C77.8957 32.256 78.0992 31.8626 78.2349 31.5348H78.5063V29.0435H78.2349C77.7599 28.3223 77.285 28.0601 76.8778 28.0601V26.0277H77.0136ZM83.1204 56.7758V57.4314C82.9847 57.4314 82.849 57.4314 82.7811 57.4314C82.6454 57.5626 82.5097 57.6937 82.374 57.8904C82.2383 58.8082 81.9669 58.6771 82.7811 59.6605C82.849 59.595 82.9847 59.5294 83.1204 59.4638V60.2506C83.0525 60.3161 82.9846 60.3817 82.8489 60.4472C82.7132 61.1029 82.1704 61.2995 81.899 61.9552C81.899 63.5942 81.8312 65.2332 81.7633 66.8722H81.2883C80.9491 65.7577 80.7455 65.1676 80.2027 65.1676V60.9717C80.2705 60.9717 80.2705 61.0373 80.3384 61.1029C80.6098 60.9062 80.8134 60.7095 81.0848 60.5784C81.3562 59.5294 81.899 57.3003 80.4741 57.3003C80.3384 57.3659 80.2705 57.3659 80.1348 57.3659V56.7758C80.6776 56.7103 81.1526 56.7103 81.6954 56.6447C81.8311 56.3825 82.0347 56.2513 82.3061 55.9235H82.5097C82.5097 55.7269 82.5775 55.5302 82.6454 55.3991H82.8489V55.5302H83.0525V55.7924H82.8489V56.448H83.0525V56.7103L83.1204 56.7758ZM83.1204 52.2521V50.023C82.5775 50.2197 82.2383 50.8098 81.899 51.2031C81.5597 51.3998 81.0848 51.3343 81.0848 51.8587C80.7455 51.9899 80.4741 51.9899 80.2027 52.0554V53.0389C80.7455 53.1044 81.2883 53.17 81.899 53.17C82.3061 52.7766 82.7132 52.4488 83.1204 52.2521ZM80.2027 37.5665H80.3384C80.3384 37.6976 80.4062 37.8287 80.4741 37.9598C81.0169 37.9598 81.899 38.4188 82.374 39.5989H82.5775C82.7132 40.3856 82.849 41.2379 82.9168 42.0246H83.1204V42.418H83.1882V44.4504H83.0525V44.647H82.8489C82.7811 45.4338 82.6454 46.1549 82.5097 47.0072H82.374C82.1704 47.6628 81.8312 48.1218 81.424 48.3185C81.2205 48.7774 81.0848 49.3674 81.0169 49.9575C80.7455 50.0886 80.4741 50.2197 80.2027 50.4164V49.1052C80.6776 46.9417 80.4741 44.647 80.4062 43.008C80.4741 42.6802 80.6098 42.3524 80.7455 42.0902C81.7633 41.8279 81.0169 40.1889 81.0169 40.0578H80.7455C80.5419 39.8611 80.3384 39.6644 80.2027 39.4677V37.5665ZM83.1204 60.185C84.0025 59.5294 84.7488 58.1526 84.2739 57.2348C83.9346 57.1692 83.5953 57.0381 83.3918 56.9725C83.2561 56.8414 83.1882 56.7758 83.1204 56.7103V57.3659C83.2561 57.3659 83.3918 57.3659 83.5275 57.3659C83.6632 57.5626 83.731 57.8248 83.8667 58.087H84.0703V58.4804H83.8667C83.6632 58.8082 83.5953 59.0705 83.5275 59.3327C83.3918 59.3327 83.3239 59.3983 83.1882 59.3983V60.185H83.1204ZM83.1204 42.3524C83.4596 42.4835 83.9346 42.6146 84.2739 42.6802V42.8769C86.0381 43.4014 87.0559 43.7948 86.3095 46.2205C85.6988 46.5483 85.8345 46.8761 85.4952 47.5973H85.3595V47.794H85.156V49.433H85.3595V49.6952H85.4952C85.6309 50.023 86.3095 50.5475 87.3273 50.9409C87.3273 51.3343 88.2772 51.4654 88.6165 51.6621V51.8587C89.0915 52.121 89.6343 52.4488 89.77 53.6945C89.8378 53.6945 89.8378 53.76 89.9057 53.8256C89.8378 53.8256 89.8378 53.8911 89.77 53.8911H89.9057V54.0878H89.8378C89.7021 54.9401 89.5664 55.7269 89.4307 56.5791H89.2272C88.9557 57.2348 88.8879 57.7592 88.6165 58.4148H88.4808C88.3451 58.7427 88.2094 59.0705 88.1415 59.3327C87.9379 59.3983 87.6665 59.4638 87.463 59.595V59.136H87.6665V58.8082H87.8701C88.0737 57.8248 88.8879 54.1534 87.6665 53.8256V53.5633H87.463C87.463 52.711 86.0381 51.9243 85.9023 51.6621H84.1382C83.7989 51.8588 83.4596 52.0554 83.1204 52.3177V50.0886C83.1882 50.023 83.1882 50.023 83.2561 50.023C83.5953 49.0396 84.0703 48.5152 84.3417 47.8595C84.4096 47.2695 84.5453 46.8761 84.6131 46.3516H84.8167V45.3682H84.6131C84.4096 45.0404 84.206 44.647 84.0024 44.4504H83.1882V44.5815H83.0525V42.3524H83.1204Z" fill="black"/>
</svg>
